<svg xmlns="http://www.w3.org/2000/svg" xmlns:xlink="http://www.w3.org/1999/xlink" version="1.1" width="256" height="256" viewBox="0 0 256 256" xml:space="preserve">

<defs>
</defs>
<g style="stroke: none; stroke-width: 0; stroke-dasharray: none; stroke-linecap: butt; stroke-linejoin: miter; stroke-miterlimit: 10; fill: none; fill-rule: nonzero; opacity: 1;" transform="translate(1.4065934065934016 1.4065934065934016) scale(2.81 2.81)" >
	<path d="M 64.144 10.255 c -3.701 0 -6.712 3.768 -6.712 8.399 v 7.005 H 32.4 v -7.515 c 0 -1.972 1.023 -3.399 1.712 -3.399 s 1.712 1.427 1.712 3.399 c 0 1.378 1.122 2.5 2.5 2.5 s 2.5 -1.122 2.5 -2.5 c 0 -4.631 -3.011 -8.399 -6.712 -8.399 S 27.4 13.514 27.4 18.145 v 38.323 c 0 1.379 1.122 2.5 2.5 2.5 s 2.5 -1.121 2.5 -2.5 V 50.66 h 25.032 v 5.808 c 0 1.379 1.121 2.5 2.5 2.5 s 2.5 -1.121 2.5 -2.5 V 18.654 c 0 -1.972 1.022 -3.399 1.712 -3.399 s 1.712 1.427 1.712 3.399 c 0 1.378 1.121 2.5 2.5 2.5 s 2.5 -1.122 2.5 -2.5 C 70.855 14.023 67.845 10.255 64.144 10.255 z M 57.432 40.66 v 5 H 32.4 v -5 H 57.432 z M 57.432 30.66 v 5 H 32.4 v -5 H 57.432 z" style="stroke: none; stroke-width: 1; stroke-dasharray: none; stroke-linecap: butt; stroke-linejoin: miter; stroke-miterlimit: 10; fill: rgb(255,222,85); fill-rule: nonzero; opacity: 1;" transform=" matrix(1 0 0 1 0 0) " stroke-linecap="round" />
	<path d="M 0.308 53.304 c 5.934 -5.429 11.868 -5.299 17.801 0.39 C 23.126 58.504 30.955 58.37 36 53.59 c 6 -5.684 12 -5.684 18 0 c 5.045 4.78 12.874 4.914 17.891 0.104 c 5.934 -5.69 11.868 -5.82 17.801 -0.39 C 89.887 53.482 90 53.741 90 54.004 v 11.858 c -6 -5.684 -11.999 -4.662 -17.999 1.021 c -5.07 4.802 -12.916 4.83 -17.98 0.022 c -6.014 -5.711 -12.029 -5.711 -18.043 0 c -5.064 4.809 -12.91 4.78 -17.98 -0.022 C 11.999 61.201 6 60.179 0 65.863 V 54.004 C 0 53.741 0.113 53.482 0.308 53.304 z" style="stroke: none; stroke-width: 1; stroke-dasharray: none; stroke-linecap: butt; stroke-linejoin: miter; stroke-miterlimit: 10; fill: rgb(51,204,204); fill-rule: nonzero; opacity: 1;" transform=" matrix(1 0 0 1 0 0) " stroke-linecap="round" />
	<path d="M 90 65.863 c -6.036 -5.719 -12.073 -5.684 -18.109 0.104 c -5.017 4.81 -12.846 4.676 -17.891 -0.104 c -6 -5.684 -12 -5.684 -18 0 c -5.045 4.78 -12.874 4.914 -17.891 0.104 C 12.073 60.179 6.036 60.144 0 65.863 v 11.259 c 0 0.785 0.904 1.203 1.521 0.717 c 5.529 -4.353 11.059 -3.879 16.588 1.423 c 5.017 4.81 12.846 4.676 17.891 -0.104 c 6 -5.684 12 -5.684 18 0 c 5.045 4.78 12.874 4.914 17.891 0.104 c 5.529 -5.302 11.059 -5.776 16.588 -1.423 C 89.096 78.325 90 77.908 90 77.122 V 65.863 z" style="stroke: none; stroke-width: 1; stroke-dasharray: none; stroke-linecap: butt; stroke-linejoin: miter; stroke-miterlimit: 10; fill: rgb(56,228,228); fill-rule: nonzero; opacity: 1;" transform=" matrix(1 0 0 1 0 0) " stroke-linecap="round" />
</g>
</svg>