<?xml version="1.0" encoding="iso-8859-1"?>
<!-- Uploaded to: SVG Repo, www.svgrepo.com, Generator: SVG Repo Mixer Tools -->
<svg height="800px" width="800px" version="1.1" id="Layer_1" xmlns="http://www.w3.org/2000/svg" xmlns:xlink="http://www.w3.org/1999/xlink" 
	 viewBox="0 0 512 512" xml:space="preserve">
<g transform="translate(1 1)">
	<g>
		<path style="fill:#FFDD09;" d="M314.733,75.8H195.267V50.2c0-5.12,3.413-8.533,8.533-8.533h102.4c5.12,0,8.533,3.413,8.533,8.533
			V75.8z"/>
		<path style="fill:#FFDD09;" d="M280.6,41.667h-51.2v-8.533c0-14.507,11.093-25.6,25.6-25.6l0,0c14.507,0,25.6,11.093,25.6,25.6
			V41.667z"/>
		<path style="fill:#FFDD09;" d="M127,476.867c0-14.507-11.093-25.6-25.6-25.6s-25.6,11.093-25.6,25.6
			c0,14.507,11.093,25.6,25.6,25.6S127,491.373,127,476.867"/>
		<path style="fill:#FFDD09;" d="M434.2,476.867c0-14.507-11.093-25.6-25.6-25.6c-14.507,0-25.6,11.093-25.6,25.6
			c0,14.507,11.093,25.6,25.6,25.6C423.107,502.467,434.2,491.373,434.2,476.867"/>
	</g>
	<path style="fill:#FD9808;" d="M126.147,451.267h104.107c13.653,0,24.747-11.093,24.747-24.747V237.933
		c0-14.507-11.093-25.6-25.6-25.6H126.147c-13.653,0-24.747,11.093-24.747,24.747v189.44
		C101.4,440.173,112.493,451.267,126.147,451.267"/>
	<path style="fill:#FFDD09;" d="M121.88,451.267h87.04c11.093,0,20.48-11.093,20.48-24.747V237.933c0-14.507-9.387-25.6-21.333-25.6
		H121.88c-11.093,0-20.48,11.093-20.48,24.747v189.44C101.4,440.173,110.787,451.267,121.88,451.267"/>
	<path style="fill:#FD9808;" d="M279.747,451.267h104.107c13.653,0,24.747-11.093,24.747-24.747V306.2
		c0-14.507-11.093-25.6-25.6-25.6H279.747c-13.653,0-24.747,11.093-24.747,24.747V426.52
		C255,440.173,266.093,451.267,279.747,451.267"/>
	<path style="fill:#FFDD09;" d="M275.48,451.267h87.04c11.093,0,20.48-11.093,20.48-24.747V306.2c0-14.507-9.387-25.6-21.333-25.6
		H275.48c-11.093,0-20.48,11.093-20.48,24.747V426.52C255,440.173,264.387,451.267,275.48,451.267"/>
	<g>
		<polygon style="fill:#54C9FD;" points="135.533,280.6 220.867,280.6 220.867,246.467 135.533,246.467 		"/>
		<polygon style="fill:#54C9FD;" points="289.133,348.867 374.467,348.867 374.467,314.733 289.133,314.733 		"/>
	</g>
	<path d="M229.4,135.533H127c-5.12,0-8.533-3.413-8.533-8.533s3.413-8.533,8.533-8.533h102.4c5.12,0,8.533,3.413,8.533,8.533
		S234.52,135.533,229.4,135.533z"/>
	<path d="M212.333,220.867h-68.267c-5.12,0-8.533-3.413-8.533-8.533V127c0-5.12,3.413-8.533,8.533-8.533h68.267
		c5.12,0,8.533,3.413,8.533,8.533v85.333C220.867,217.453,217.453,220.867,212.333,220.867z M152.6,203.8h51.2v-68.267h-51.2V203.8z
		"/>
	<path d="M220.867,289.133h-85.333c-5.12,0-8.533-3.413-8.533-8.533v-34.133c0-5.12,3.413-8.533,8.533-8.533h85.333
		c5.12,0,8.533,3.413,8.533,8.533V280.6C229.4,285.72,225.987,289.133,220.867,289.133z M144.067,272.067h68.267V255h-68.267
		V272.067z"/>
	<path d="M230.253,459.8H126.147c-17.92,0-33.28-14.507-33.28-33.28V237.08c0-17.92,14.507-33.28,33.28-33.28H229.4
		c18.773,0,34.133,15.36,34.133,34.133V426.52C263.533,445.293,249.027,459.8,230.253,459.8z M126.147,220.867
		c-8.533,0-16.213,6.827-16.213,16.213v189.44c0,8.533,6.827,16.213,16.213,16.213h104.107c8.533,0,16.213-6.827,16.213-16.213
		V237.933c0-9.387-7.68-17.067-17.067-17.067H126.147z"/>
	<path d="M383,203.8H280.6c-5.12,0-8.533-3.413-8.533-8.533c0-5.12,3.413-8.533,8.533-8.533H383c5.12,0,8.533,3.413,8.533,8.533
		C391.533,200.387,388.12,203.8,383,203.8z"/>
	<path d="M365.933,289.133h-68.267c-5.12,0-8.533-3.413-8.533-8.533v-85.333c0-5.12,3.413-8.533,8.533-8.533h68.267
		c5.12,0,8.533,3.413,8.533,8.533V280.6C374.467,285.72,371.053,289.133,365.933,289.133z M306.2,272.067h51.2V203.8h-51.2V272.067z
		"/>
	<path d="M374.467,357.4h-85.333c-5.12,0-8.533-3.413-8.533-8.533v-34.133c0-5.12,3.413-8.533,8.533-8.533h85.333
		c5.12,0,8.533,3.413,8.533,8.533v34.133C383,353.987,379.587,357.4,374.467,357.4z M297.667,340.333h68.267v-17.067h-68.267
		V340.333z"/>
	<path d="M383.853,459.8H279.747c-17.92,0-33.28-14.507-33.28-33.28V305.347c0-17.92,14.507-33.28,33.28-33.28H383
		c18.773,0,34.133,15.36,34.133,34.133v120.32C417.133,445.293,402.627,459.8,383.853,459.8z M279.747,289.133
		c-8.533,0-16.213,6.827-16.213,16.213V426.52c0,8.533,6.827,16.213,16.213,16.213h104.107c8.533,0,16.213-6.827,16.213-16.213
		V306.2c0-9.387-7.68-17.067-17.067-17.067H279.747z"/>
	<path d="M101.4,511c-18.773,0-34.133-15.36-34.133-34.133s15.36-34.133,34.133-34.133s34.133,15.36,34.133,34.133
		S120.173,511,101.4,511z M101.4,459.8c-9.387,0-17.067,7.68-17.067,17.067s7.68,17.067,17.067,17.067s17.067-7.68,17.067-17.067
		S110.787,459.8,101.4,459.8z"/>
	<path d="M408.6,511c-18.773,0-34.133-15.36-34.133-34.133s15.36-34.133,34.133-34.133c18.773,0,34.133,15.36,34.133,34.133
		S427.373,511,408.6,511z M408.6,459.8c-9.387,0-17.067,7.68-17.067,17.067s7.68,17.067,17.067,17.067
		c9.387,0,17.067-7.68,17.067-17.067S417.987,459.8,408.6,459.8z"/>
	<path d="M485.4,459.8H24.6c-5.12,0-8.533-3.413-8.533-8.533s3.413-8.533,8.533-8.533h460.8c5.12,0,8.533,3.413,8.533,8.533
		S490.52,459.8,485.4,459.8z"/>
	<path d="M451.267,459.8H58.733c-5.12,0-8.533-3.413-8.533-8.533V178.2c0-61.44,49.493-110.933,110.933-110.933h187.733
		c61.44,0,110.933,49.493,110.933,110.933v273.067C459.8,456.387,456.387,459.8,451.267,459.8z M67.267,442.733h375.467V178.2
		c0-52.053-41.813-93.867-93.867-93.867H161.133c-52.053,0-93.867,41.813-93.867,93.867V442.733z"/>
	<path d="M314.733,84.333H195.267c-5.12,0-8.533-3.413-8.533-8.533V50.2c0-9.387,7.68-17.067,17.067-17.067h102.4
		c9.387,0,17.067,7.68,17.067,17.067v25.6C323.267,80.92,319.853,84.333,314.733,84.333z M203.8,67.267h102.4V50.2H203.8V67.267z"/>
	<path d="M280.6,50.2h-51.2c-5.12,0-8.533-3.413-8.533-8.533v-8.533C220.867,14.36,236.227-1,255-1s34.133,15.36,34.133,34.133
		v8.533C289.133,46.787,285.72,50.2,280.6,50.2z M237.933,33.133h34.133c0-9.387-7.68-17.067-17.067-17.067
		S237.933,23.747,237.933,33.133z"/>
</g>
</svg>