<svg xmlns="http://www.w3.org/2000/svg" xmlns:xlink="http://www.w3.org/1999/xlink" version="1.1" width="256" height="256" viewBox="0 0 256 256" xml:space="preserve">

<defs>
</defs>
<g style="stroke: none; stroke-width: 0; stroke-dasharray: none; stroke-linecap: butt; stroke-linejoin: miter; stroke-miterlimit: 10; fill: none; fill-rule: nonzero; opacity: 1;" transform="translate(1.4065934065934016 1.4065934065934016) scale(2.81 2.81)" >
	<path d="M 77.578 89 H 12.422 c -2.175 0 -3.939 -1.763 -3.939 -3.939 V 4.939 C 8.483 2.763 10.247 1 12.422 1 h 65.156 c 2.175 0 3.939 1.763 3.939 3.939 v 80.122 C 81.517 87.237 79.753 89 77.578 89 z" style="stroke: none; stroke-width: 1; stroke-dasharray: none; stroke-linecap: butt; stroke-linejoin: miter; stroke-miterlimit: 10; fill: rgb(226,216,236); fill-rule: nonzero; opacity: 1;" transform=" matrix(1 0 0 1 0 0) " stroke-linecap="round" />
	<path d="M 8.483 19.865 h 73.033 V 4.939 C 81.517 2.763 79.753 1 77.578 1 H 12.422 c -2.175 0 -3.939 1.763 -3.939 3.939 V 19.865 z" style="stroke: none; stroke-width: 1; stroke-dasharray: none; stroke-linecap: butt; stroke-linejoin: miter; stroke-miterlimit: 10; fill: rgb(184,175,194); fill-rule: nonzero; opacity: 1;" transform=" matrix(1 0 0 1 0 0) " stroke-linecap="round" />
	<path d="M 12.422 89 h 65.156 c 2.175 0 3.939 -1.763 3.939 -3.939 v -6.148 H 8.483 v 6.148 C 8.483 87.237 10.247 89 12.422 89 z" style="stroke: none; stroke-width: 1; stroke-dasharray: none; stroke-linecap: butt; stroke-linejoin: miter; stroke-miterlimit: 10; fill: rgb(184,175,194); fill-rule: nonzero; opacity: 1;" transform=" matrix(1 0 0 1 0 0) " stroke-linecap="round" />
	<circle cx="44.995000000000005" cy="49.385000000000005" r="20.905" style="stroke: none; stroke-width: 1; stroke-dasharray: none; stroke-linecap: butt; stroke-linejoin: miter; stroke-miterlimit: 10; fill: rgb(184,175,194); fill-rule: nonzero; opacity: 1;" transform="  matrix(1 0 0 1 0 0) "/>
	<circle cx="44.996" cy="49.385999999999996" r="14.266" style="stroke: none; stroke-width: 1; stroke-dasharray: none; stroke-linecap: butt; stroke-linejoin: miter; stroke-miterlimit: 10; fill: rgb(255,255,255); fill-rule: nonzero; opacity: 1;" transform="  matrix(1 0 0 1 0 0) "/>
	<path d="M 30.985 46.767 c -0.158 0.851 -0.251 1.725 -0.251 2.622 c 0 7.879 6.387 14.266 14.266 14.266 c 7.132 0 13.025 -5.24 14.081 -12.077 C 45 57.986 43.903 42.622 30.985 46.767 z" style="stroke: none; stroke-width: 1; stroke-dasharray: none; stroke-linecap: butt; stroke-linejoin: miter; stroke-miterlimit: 10; fill: rgb(157,198,251); fill-rule: nonzero; opacity: 1;" transform=" matrix(1 0 0 1 0 0) " stroke-linecap="round" />
	<path d="M 31.943 14.137 H 18.285 c -2.046 0 -3.704 -1.658 -3.704 -3.704 v 0 c 0 -2.046 1.658 -3.704 3.704 -3.704 h 13.658 c 2.046 0 3.704 1.658 3.704 3.704 v 0 C 35.647 12.478 33.988 14.137 31.943 14.137 z" style="stroke: none; stroke-width: 1; stroke-dasharray: none; stroke-linecap: butt; stroke-linejoin: miter; stroke-miterlimit: 10; fill: rgb(157,198,251); fill-rule: nonzero; opacity: 1;" transform=" matrix(1 0 0 1 0 0) " stroke-linecap="round" />
	<path d="M 55.255 14.137 h -1.854 c -2.046 0 -3.704 -1.658 -3.704 -3.704 v 0 c 0 -2.046 1.658 -3.704 3.704 -3.704 h 1.854 c 2.046 0 3.704 1.658 3.704 3.704 v 0 C 58.959 12.478 57.3 14.137 55.255 14.137 z" style="stroke: none; stroke-width: 1; stroke-dasharray: none; stroke-linecap: butt; stroke-linejoin: miter; stroke-miterlimit: 10; fill: rgb(179,229,159); fill-rule: nonzero; opacity: 1;" transform=" matrix(1 0 0 1 0 0) " stroke-linecap="round" />
	<path d="M 71.715 14.137 h -1.854 c -2.046 0 -3.704 -1.658 -3.704 -3.704 v 0 c 0 -2.046 1.658 -3.704 3.704 -3.704 h 1.854 c 2.046 0 3.704 1.658 3.704 3.704 v 0 C 75.419 12.478 73.761 14.137 71.715 14.137 z" style="stroke: none; stroke-width: 1; stroke-dasharray: none; stroke-linecap: butt; stroke-linejoin: miter; stroke-miterlimit: 10; fill: rgb(255,224,125); fill-rule: nonzero; opacity: 1;" transform=" matrix(1 0 0 1 0 0) " stroke-linecap="round" />
	<path d="M 77.578 90 H 12.422 c -2.723 0 -4.939 -2.216 -4.939 -4.938 V 4.939 C 7.483 2.216 9.699 0 12.422 0 h 65.156 c 2.723 0 4.938 2.216 4.938 4.939 v 80.123 C 82.517 87.784 80.301 90 77.578 90 z M 12.422 2 c -1.621 0 -2.939 1.318 -2.939 2.939 v 80.123 c 0 1.62 1.318 2.938 2.939 2.938 h 65.156 c 1.62 0 2.938 -1.318 2.938 -2.938 V 4.939 C 80.517 3.318 79.198 2 77.578 2 H 12.422 z" style="stroke: none; stroke-width: 1; stroke-dasharray: none; stroke-linecap: butt; stroke-linejoin: miter; stroke-miterlimit: 10; fill: rgb(0,0,0); fill-rule: nonzero; opacity: 1;" transform=" matrix(1 0 0 1 0 0) " stroke-linecap="round" />
	<path d="M 81.517 20.865 H 8.483 c -0.552 0 -1 -0.448 -1 -1 V 4.939 C 7.483 2.216 9.699 0 12.422 0 h 65.156 c 2.723 0 4.938 2.216 4.938 4.939 v 14.926 C 82.517 20.417 82.069 20.865 81.517 20.865 z M 9.483 18.865 h 71.033 V 4.939 C 80.517 3.318 79.198 2 77.578 2 H 12.422 c -1.621 0 -2.939 1.318 -2.939 2.939 V 18.865 z" style="stroke: none; stroke-width: 1; stroke-dasharray: none; stroke-linecap: butt; stroke-linejoin: miter; stroke-miterlimit: 10; fill: rgb(0,0,0); fill-rule: nonzero; opacity: 1;" transform=" matrix(1 0 0 1 0 0) " stroke-linecap="round" />
	<path d="M 77.578 90 H 12.422 c -2.723 0 -4.939 -2.216 -4.939 -4.938 v -6.147 c 0 -0.553 0.448 -1 1 -1 h 73.033 c 0.553 0 1 0.447 1 1 v 6.147 C 82.517 87.784 80.301 90 77.578 90 z M 9.483 79.914 v 5.147 c 0 1.62 1.318 2.938 2.939 2.938 h 65.156 c 1.62 0 2.938 -1.318 2.938 -2.938 v -5.147 H 9.483 z" style="stroke: none; stroke-width: 1; stroke-dasharray: none; stroke-linecap: butt; stroke-linejoin: miter; stroke-miterlimit: 10; fill: rgb(0,0,0); fill-rule: nonzero; opacity: 1;" transform=" matrix(1 0 0 1 0 0) " stroke-linecap="round" />
	<path d="M 45 71.295 c -12.079 0 -21.905 -9.827 -21.905 -21.905 c 0 -12.079 9.827 -21.906 21.905 -21.906 c 12.078 0 21.905 9.827 21.905 21.906 C 66.905 61.468 57.078 71.295 45 71.295 z M 45 29.484 c -10.976 0 -19.905 8.93 -19.905 19.906 c 0 10.976 8.93 19.905 19.905 19.905 s 19.905 -8.93 19.905 -19.905 C 64.905 38.414 55.976 29.484 45 29.484 z" style="stroke: none; stroke-width: 1; stroke-dasharray: none; stroke-linecap: butt; stroke-linejoin: miter; stroke-miterlimit: 10; fill: rgb(0,0,0); fill-rule: nonzero; opacity: 1;" transform=" matrix(1 0 0 1 0 0) " stroke-linecap="round" />
	<path d="M 45 64.655 c -8.417 0 -15.266 -6.848 -15.266 -15.266 S 36.583 34.124 45 34.124 c 8.418 0 15.266 6.848 15.266 15.266 S 53.418 64.655 45 64.655 z M 45 36.124 c -7.314 0 -13.266 5.951 -13.266 13.266 c 0 7.314 5.951 13.266 13.266 13.266 s 13.266 -5.951 13.266 -13.266 C 58.266 42.075 52.314 36.124 45 36.124 z" style="stroke: none; stroke-width: 1; stroke-dasharray: none; stroke-linecap: butt; stroke-linejoin: miter; stroke-miterlimit: 10; fill: rgb(0,0,0); fill-rule: nonzero; opacity: 1;" transform=" matrix(1 0 0 1 0 0) " stroke-linecap="round" />
	<path d="M 45 64.655 c -8.417 0 -15.266 -6.848 -15.266 -15.266 c 0 -0.905 0.09 -1.85 0.268 -2.805 c 0.067 -0.361 0.327 -0.657 0.677 -0.77 c 6.594 -2.115 10.482 0.596 13.915 2.986 c 3.854 2.684 7.184 5 14.072 1.866 c 0.333 -0.152 0.726 -0.108 1.018 0.113 c 0.293 0.222 0.44 0.586 0.385 0.949 C 58.913 59.22 52.575 64.655 45 64.655 z M 31.87 47.546 c -0.091 0.63 -0.136 1.238 -0.136 1.844 c 0 7.314 5.951 13.266 13.266 13.266 c 5.96 0 11.037 -3.872 12.69 -9.435 c -6.799 2.404 -10.733 -0.336 -14.239 -2.777 C 40.219 48.191 37.162 46.061 31.87 47.546 z" style="stroke: none; stroke-width: 1; stroke-dasharray: none; stroke-linecap: butt; stroke-linejoin: miter; stroke-miterlimit: 10; fill: rgb(0,0,0); fill-rule: nonzero; opacity: 1;" transform=" matrix(1 0 0 1 0 0) " stroke-linecap="round" />
	<path d="M 31.943 15.137 H 18.285 c -2.594 0 -4.704 -2.11 -4.704 -4.704 s 2.11 -4.704 4.704 -4.704 h 13.658 c 2.594 0 4.704 2.11 4.704 4.704 S 34.537 15.137 31.943 15.137 z M 18.285 7.729 c -1.491 0 -2.704 1.213 -2.704 2.704 c 0 1.491 1.213 2.704 2.704 2.704 h 13.658 c 1.491 0 2.704 -1.213 2.704 -2.704 c 0 -1.491 -1.213 -2.704 -2.704 -2.704 H 18.285 z" style="stroke: none; stroke-width: 1; stroke-dasharray: none; stroke-linecap: butt; stroke-linejoin: miter; stroke-miterlimit: 10; fill: rgb(0,0,0); fill-rule: nonzero; opacity: 1;" transform=" matrix(1 0 0 1 0 0) " stroke-linecap="round" />
	<path d="M 55.255 15.137 H 53.4 c -2.594 0 -4.704 -2.11 -4.704 -4.704 s 2.11 -4.704 4.704 -4.704 h 1.854 c 2.594 0 4.704 2.11 4.704 4.704 S 57.849 15.137 55.255 15.137 z M 53.4 7.729 c -1.491 0 -2.704 1.213 -2.704 2.704 c 0 1.491 1.213 2.704 2.704 2.704 h 1.854 c 1.491 0 2.704 -1.213 2.704 -2.704 c 0 -1.491 -1.213 -2.704 -2.704 -2.704 H 53.4 z" style="stroke: none; stroke-width: 1; stroke-dasharray: none; stroke-linecap: butt; stroke-linejoin: miter; stroke-miterlimit: 10; fill: rgb(0,0,0); fill-rule: nonzero; opacity: 1;" transform=" matrix(1 0 0 1 0 0) " stroke-linecap="round" />
	<path d="M 71.716 15.137 h -1.854 c -2.594 0 -4.704 -2.11 -4.704 -4.704 s 2.11 -4.704 4.704 -4.704 h 1.854 c 2.594 0 4.703 2.11 4.703 4.704 S 74.31 15.137 71.716 15.137 z M 69.861 7.729 c -1.491 0 -2.704 1.213 -2.704 2.704 c 0 1.491 1.213 2.704 2.704 2.704 h 1.854 c 1.49 0 2.703 -1.213 2.703 -2.704 c 0 -1.491 -1.213 -2.704 -2.703 -2.704 H 69.861 z" style="stroke: none; stroke-width: 1; stroke-dasharray: none; stroke-linecap: butt; stroke-linejoin: miter; stroke-miterlimit: 10; fill: rgb(0,0,0); fill-rule: nonzero; opacity: 1;" transform=" matrix(1 0 0 1 0 0) " stroke-linecap="round" />
</g>
</svg>