<svg xmlns="http://www.w3.org/2000/svg" xmlns:xlink="http://www.w3.org/1999/xlink" version="1.1" width="256" height="256" viewBox="0 0 256 256" xml:space="preserve">

<defs>
</defs>
<g style="stroke: none; stroke-width: 0; stroke-dasharray: none; stroke-linecap: butt; stroke-linejoin: miter; stroke-miterlimit: 10; fill: none; fill-rule: nonzero; opacity: 1;" transform="translate(1.4065934065934016 1.4065934065934016) scale(2.81 2.81)" >
	<circle cx="45" cy="45" r="45" style="stroke: none; stroke-width: 1; stroke-dasharray: none; stroke-linecap: butt; stroke-linejoin: miter; stroke-miterlimit: 10; fill: rgb(0,169,174); fill-rule: nonzero; opacity: 1;" transform="  matrix(1 0 0 1 0 0) "/>
	<path d="M 79.556 45.366 l 1.48 -0.006 c 1.402 0 2.544 -1.141 2.544 -2.544 v -2.456 h 0.479 c 1.403 0 2.545 -1.141 2.545 -2.544 v -2.674 c 0 -1.403 -1.142 -2.544 -2.545 -2.544 H 83.58 v -2.456 c 0 -1.403 -1.142 -2.544 -2.544 -2.544 h -1.48 v -0.902 c 0 -1.403 -1.142 -2.544 -2.544 -2.544 h -3.59 c -1.402 0 -2.544 1.141 -2.544 2.544 v 6.566 h -0.199 c -0.816 -0.758 -1.89 -1.188 -3.036 -1.188 h -1.37 c -1.146 0 -2.22 0.431 -3.036 1.188 H 26.764 c -0.816 -0.758 -1.89 -1.188 -3.036 -1.188 h -1.371 c -1.147 0 -2.22 0.43 -3.037 1.188 h -0.198 v -6.566 c 0 -1.403 -1.142 -2.544 -2.544 -2.544 h -3.589 c -1.403 0 -2.544 1.141 -2.544 2.544 v 0.902 h -1.48 c -1.403 0 -2.544 1.141 -2.544 2.544 v 2.456 H 5.94 c -1.403 0 -2.544 1.141 -2.544 2.544 v 2.674 c 0 1.403 1.141 2.544 2.544 2.544 h 0.48 v 2.456 c 0 1.403 1.141 2.544 2.544 2.544 h 1.48 v 0.006 c 0 1.403 1.141 2.544 2.544 2.544 h 3.589 c 0.043 0 0.086 -0.001 0.129 -0.003 c -0.941 3.577 -1.742 7.138 -1.742 10.234 c 0 0.348 0.091 0.69 0.264 0.992 c 2.649 4.637 5.458 7.81 8.513 9.652 c 0.025 0.017 0.064 0.041 0.091 0.058 c 0.326 0.195 0.657 0.379 0.951 0.525 c 0.02 0.012 0.042 0.022 0.064 0.033 c 0.038 0.021 0.079 0.042 0.096 0.051 c 0.064 0.033 0.13 0.063 0.212 0.1 c 0.18 0.084 0.359 0.167 0.512 0.231 c 0.057 0.024 0.114 0.047 0.157 0.063 c 0.009 0.004 0.018 0.007 0.027 0.011 c 0.025 0.011 0.066 0.028 0.083 0.035 c 0.141 0.056 0.282 0.11 0.464 0.175 c 0.185 0.066 0.373 0.125 0.558 0.183 l 0.279 0.088 c 0.009 0.003 0.017 0.006 0.026 0.008 c 0.041 0.014 0.059 0.02 0.104 0.029 c 0.013 0.003 0.027 0.007 0.041 0.01 c 0.052 0.014 0.104 0.025 0.144 0.033 c 0.051 0.013 0.103 0.025 0.154 0.038 c 0.092 0.297 0.186 0.581 0.282 0.853 l 0.043 0.119 c 0.105 0.29 0.214 0.57 0.311 0.802 c 0.006 0.015 0.034 0.083 0.04 0.098 c 0.092 0.219 0.188 0.432 0.276 0.62 c 0.004 0.01 0.042 0.09 0.047 0.099 c 0.08 0.168 0.16 0.333 0.229 0.463 c 0.01 0.021 0.021 0.042 0.032 0.063 l 0.05 0.091 c 0.014 0.027 0.029 0.055 0.044 0.082 c 0.087 0.162 0.176 0.323 0.27 0.483 c 0.002 0.004 0.056 0.09 0.058 0.094 c 0.178 0.298 0.364 0.584 0.572 0.884 c 0.369 0.527 0.771 1.031 1.268 1.584 c 0.209 0.23 0.425 0.458 0.606 0.639 c 0.023 0.025 0.047 0.051 0.071 0.075 c 0.515 0.516 1.062 1.013 1.549 1.442 c -0.02 2.693 0.027 6.29 0.191 9.607 C 37.27 89.495 41.076 90 45 90 c 3.995 0 7.866 -0.527 11.553 -1.504 c 0.131 -2.682 0.202 -5.78 0.193 -8.874 c -0.001 -0.23 -0.002 -0.457 -0.004 -0.679 c 2.604 -2.295 4.493 -4.387 5.75 -8.488 c 0.022 -0.006 0.044 -0.011 0.064 -0.017 l 0.4 -0.107 l 0.119 -0.034 l 0.245 -0.074 c 0.13 -0.04 0.26 -0.08 0.439 -0.142 c 0.215 -0.076 0.428 -0.158 0.612 -0.235 c 0.021 -0.009 0.104 -0.042 0.125 -0.051 c 0.269 -0.113 0.533 -0.239 0.795 -0.369 c 0.025 -0.012 0.05 -0.023 0.075 -0.036 c 0.273 -0.139 0.544 -0.285 0.782 -0.425 l 0.225 -0.132 c 3.129 -1.89 5.938 -5.063 8.588 -9.7 c 0.173 -0.302 0.264 -0.645 0.264 -0.992 c 0 -3.096 -0.801 -6.655 -1.741 -10.231 h 3.526 C 78.414 47.91 79.556 46.769 79.556 45.366 z M 38.951 42.401 c -1.337 0.632 -2.316 1.701 -2.791 3.066 c -0.542 1.557 -0.378 3.373 0.447 5.241 c -0.485 0.492 -0.785 1.167 -0.785 1.91 v 1.188 c 0 1.016 0.343 1.977 0.93 2.752 c -0.095 -0.02 -0.191 -0.038 -0.288 -0.054 c -0.957 -0.152 -1.964 -0.098 -2.98 0.168 c -0.062 -0.073 -0.125 -0.144 -0.19 -0.213 c -0.215 -0.227 -0.467 -0.452 -0.781 -0.696 l -0.178 -0.133 c -1.45 -1.057 -3.229 -1.613 -4.957 -1.634 c 0.062 -1.79 -0.123 -4.101 -0.381 -7.013 c -0.206 -2.326 -0.418 -4.723 -0.385 -6.489 c 0.274 -0.176 0.523 -0.391 0.739 -0.636 h 15.024 C 41.055 40.354 39.867 41.178 38.951 42.401 z M 63.192 46.984 c -0.259 2.918 -0.443 5.23 -0.381 7.021 c -1.649 0.021 -3.35 0.522 -4.751 1.475 c -0.065 0.045 -0.129 0.092 -0.25 0.184 l -0.146 0.109 c -0.31 0.242 -0.555 0.461 -0.772 0.692 c -0.063 0.067 -0.126 0.137 -0.187 0.209 c -0.642 -0.165 -1.28 -0.249 -1.905 -0.249 c -0.335 0 -0.666 0.024 -0.99 0.072 c -0.122 0.019 -0.243 0.04 -0.364 0.065 c 0.59 -0.776 0.934 -1.739 0.934 -2.757 v -1.188 c 0 -0.727 -0.286 -1.388 -0.753 -1.876 c 0.79 -1.706 0.96 -3.306 0.505 -4.773 c -0.398 -1.281 -1.256 -2.389 -2.559 -3.312 c 0.081 -0.231 0.12 -0.479 0.111 -0.733 c -0.029 -0.807 -0.54 -1.517 -1.296 -1.801 c -0.252 -0.095 -0.509 -0.183 -0.77 -0.263 h 13.182 c 0.229 0.247 0.49 0.46 0.776 0.635 C 63.611 42.263 63.398 44.66 63.192 46.984 z" style="stroke: none; stroke-width: 1; stroke-dasharray: none; stroke-linecap: butt; stroke-linejoin: miter; stroke-miterlimit: 10; fill: rgb(0,156,161); fill-rule: nonzero; opacity: 1;" transform=" matrix(1 0 0 1 0 0) " stroke-linecap="round" />
	<rect x="16.17" y="32.26" rx="0" ry="0" width="57.43" height="2.6" style="stroke: none; stroke-width: 1; stroke-dasharray: none; stroke-linecap: butt; stroke-linejoin: miter; stroke-miterlimit: 10; fill: rgb(226,226,226); fill-rule: nonzero; opacity: 1;" transform=" matrix(1 0 0 1 0 0) "/>
	<path d="M 16.578 42.91 h -3.59 c -0.3 0 -0.544 -0.244 -0.544 -0.544 v -18.67 c 0 -0.3 0.244 -0.544 0.544 -0.544 h 3.59 c 0.3 0 0.544 0.244 0.544 0.544 v 18.67 C 17.122 42.666 16.878 42.91 16.578 42.91 z" style="stroke: none; stroke-width: 1; stroke-dasharray: none; stroke-linecap: butt; stroke-linejoin: miter; stroke-miterlimit: 10; fill: rgb(48,78,130); fill-rule: nonzero; opacity: 1;" transform=" matrix(1 0 0 1 0 0) " stroke-linecap="round" />
	<path d="M 73.422 42.91 h 3.59 c 0.3 0 0.544 -0.244 0.544 -0.544 v -18.67 c 0 -0.3 -0.244 -0.544 -0.544 -0.544 h -3.59 c -0.3 0 -0.544 0.244 -0.544 0.544 v 18.67 C 72.878 42.666 73.122 42.91 73.422 42.91 z" style="stroke: none; stroke-width: 1; stroke-dasharray: none; stroke-linecap: butt; stroke-linejoin: miter; stroke-miterlimit: 10; fill: rgb(48,78,130); fill-rule: nonzero; opacity: 1;" transform=" matrix(1 0 0 1 0 0) " stroke-linecap="round" />
	<path d="M 5.94 35.359 h 2.48 v -3.762 H 5.94 c -0.3 0 -0.544 0.244 -0.544 0.544 v 2.674 C 5.396 35.116 5.64 35.359 5.94 35.359 z" style="stroke: none; stroke-width: 1; stroke-dasharray: none; stroke-linecap: butt; stroke-linejoin: miter; stroke-miterlimit: 10; fill: rgb(226,226,226); fill-rule: nonzero; opacity: 1;" transform=" matrix(1 0 0 1 0 0) " stroke-linecap="round" />
	<path d="M 84.06 35.359 h -2.48 v -3.762 h 2.48 c 0.3 0 0.544 0.244 0.544 0.544 v 2.674 C 84.604 35.116 84.36 35.359 84.06 35.359 z" style="stroke: none; stroke-width: 1; stroke-dasharray: none; stroke-linecap: butt; stroke-linejoin: miter; stroke-miterlimit: 10; fill: rgb(226,226,226); fill-rule: nonzero; opacity: 1;" transform=" matrix(1 0 0 1 0 0) " stroke-linecap="round" />
	<path d="M 8.964 40.359 H 11.9 c 0.3 0 0.544 -0.244 0.544 -0.544 V 27.142 c 0 -0.3 -0.244 -0.544 -0.544 -0.544 H 8.964 c -0.3 0 -0.544 0.244 -0.544 0.544 v 12.674 C 8.42 40.116 8.664 40.359 8.964 40.359 z" style="stroke: none; stroke-width: 1; stroke-dasharray: none; stroke-linecap: butt; stroke-linejoin: miter; stroke-miterlimit: 10; fill: rgb(52,96,143); fill-rule: nonzero; opacity: 1;" transform=" matrix(1 0 0 1 0 0) " stroke-linecap="round" />
	<path d="M 81.036 40.359 H 78.1 c -0.3 0 -0.544 -0.244 -0.544 -0.544 V 27.142 c 0 -0.3 0.244 -0.544 0.544 -0.544 h 2.936 c 0.3 0 0.544 0.244 0.544 0.544 v 12.674 C 81.58 40.116 81.336 40.359 81.036 40.359 z" style="stroke: none; stroke-width: 1; stroke-dasharray: none; stroke-linecap: butt; stroke-linejoin: miter; stroke-miterlimit: 10; fill: rgb(52,96,143); fill-rule: nonzero; opacity: 1;" transform=" matrix(1 0 0 1 0 0) " stroke-linecap="round" />
	<path d="M 68.637 33.112 l -3.406 1.785 c 1.33 3.562 -1.68 16.714 0.208 18.695 c -2.762 -1.502 -7.057 0.038 -7.884 2.522 c -2.482 -1.211 -4.82 -0.803 -6.176 0.973 c -1.122 -0.341 -2.406 -1.095 -3.233 -1.784 l -3.046 0 h -0.006 H 45.09 l -3.046 0 c -0.827 0.689 -2.112 1.443 -3.233 1.784 c -1.356 -1.776 -3.694 -2.184 -6.176 -0.973 c -0.827 -2.483 -5.121 -4.024 -7.884 -2.522 c 1.888 -1.982 -1.122 -15.134 0.208 -18.695 l -3.406 -1.785 c -0.839 6.789 -4.589 15.664 -4.589 22.029 c 2.758 4.828 6.728 9.85 12.329 10.587 c 1.217 4.828 4.678 6.751 7.656 9.312 h 8.146 h 8.146 c 2.978 -2.561 6.439 -4.484 7.656 -9.312 c 5.601 -0.738 9.57 -5.759 12.329 -10.587 C 73.226 48.776 69.476 39.902 68.637 33.112 z" style="stroke: none; stroke-width: 1; stroke-dasharray: none; stroke-linecap: butt; stroke-linejoin: miter; stroke-miterlimit: 10; fill: rgb(255,204,154); fill-rule: nonzero; opacity: 1;" transform=" matrix(1 0 0 1 0 0) " stroke-linecap="round" />
	<path d="M 62.897 64.84 c -0.037 0.159 -0.082 0.307 -0.122 0.461 c 0.839 -0.268 1.635 -0.635 2.394 -1.078 C 64.442 64.51 63.688 64.726 62.897 64.84 z" style="stroke: none; stroke-width: 1; stroke-dasharray: none; stroke-linecap: butt; stroke-linejoin: miter; stroke-miterlimit: 10; fill: rgb(255,204,154); fill-rule: nonzero; opacity: 1;" transform=" matrix(1 0 0 1 0 0) " stroke-linecap="round" />
	<path d="M 59.177 54.139 c 0.127 0.059 0.251 0.102 0.379 0.17 c 0.054 -0.177 0.124 -0.35 0.206 -0.518 C 59.558 53.899 59.362 54.014 59.177 54.139 z" style="stroke: none; stroke-width: 1; stroke-dasharray: none; stroke-linecap: butt; stroke-linejoin: miter; stroke-miterlimit: 10; fill: rgb(255,204,154); fill-rule: nonzero; opacity: 1;" transform=" matrix(1 0 0 1 0 0) " stroke-linecap="round" />
	<path d="M 30.294 63.84 c -5.601 -0.808 -8.57 -4.308 -11.329 -9.597 c 0 -5.621 2.436 -13.677 3.82 -20.486 l -1.232 -0.646 c -0.839 6.789 -4.589 15.664 -4.589 22.029 c 2.758 4.828 6.728 9.85 12.329 10.587 c 1.217 4.828 4.678 6.751 7.656 9.312 h 2 C 35.972 72.235 31.511 69.129 30.294 63.84 z" style="stroke: none; stroke-width: 1; stroke-dasharray: none; stroke-linecap: butt; stroke-linejoin: miter; stroke-miterlimit: 10; fill: rgb(240,180,121); fill-rule: nonzero; opacity: 1;" transform=" matrix(1 0 0 1 0 0) " stroke-linecap="round" />
	<path d="M 59.897 63.84 c 5.601 -0.808 8.57 -4.308 11.329 -9.597 c 0 -5.621 -2.436 -13.677 -3.82 -20.486 l 1.232 -0.646 c 0.839 6.789 4.589 15.664 4.589 22.029 c -2.758 4.828 -6.728 9.85 -12.329 10.587 c -1.217 4.828 -4.678 6.751 -7.656 9.312 h -2 C 54.219 72.235 58.68 69.129 59.897 63.84 z" style="stroke: none; stroke-width: 1; stroke-dasharray: none; stroke-linecap: butt; stroke-linejoin: miter; stroke-miterlimit: 10; fill: rgb(240,180,121); fill-rule: nonzero; opacity: 1;" transform=" matrix(1 0 0 1 0 0) " stroke-linecap="round" />
	<path d="M 23.728 37.049 c 0.321 0 0.625 -0.066 0.907 -0.176 c 0.02 -0.379 0.053 -0.73 0.102 -1.046 c -0.31 0.138 -0.648 0.223 -1.009 0.223 h -1.371 c -0.45 0 -0.872 -0.12 -1.236 -0.329 c -0.058 0.289 -0.124 0.583 -0.189 0.876 c 0.404 0.283 0.894 0.453 1.425 0.453 H 23.728 z" style="stroke: none; stroke-width: 1; stroke-dasharray: none; stroke-linecap: butt; stroke-linejoin: miter; stroke-miterlimit: 10; fill: rgb(240,180,121); fill-rule: nonzero; opacity: 1;" transform=" matrix(1 0 0 1 0 0) " stroke-linecap="round" />
	<path d="M 69.049 35.604 c -0.401 0.277 -0.882 0.446 -1.406 0.446 h -1.371 c -0.283 0 -0.553 -0.051 -0.806 -0.138 c 0.044 0.311 0.075 0.653 0.093 1.021 c 0.227 0.068 0.463 0.116 0.713 0.116 h 1.371 c 0.607 0 1.155 -0.226 1.587 -0.586 C 69.167 36.175 69.105 35.887 69.049 35.604 z" style="stroke: none; stroke-width: 1; stroke-dasharray: none; stroke-linecap: butt; stroke-linejoin: miter; stroke-miterlimit: 10; fill: rgb(240,180,121); fill-rule: nonzero; opacity: 1;" transform=" matrix(1 0 0 1 0 0) " stroke-linecap="round" />
	<path d="M 59.671 53.838 c -1.015 0.555 -1.807 1.35 -2.115 2.277 c -2.482 -1.211 -4.82 -0.803 -6.176 0.973 c -1.122 -0.341 -2.406 -1.095 -3.233 -1.784 h -3.046 H 45.09 h -3.046 c -0.827 0.689 -2.112 1.443 -3.233 1.784 c -1.356 -1.776 -3.694 -2.184 -6.176 -0.973 c -0.309 -0.927 -1.101 -1.722 -2.115 -2.277 c -3.02 2.736 -5.159 5.998 -6.529 9.721 c 1.581 1.119 3.339 1.911 5.303 2.17 c 1.217 4.828 3.187 6.751 6.164 9.312 c -0.056 4.037 0.05 9.935 0.422 14.034 C 38.825 89.68 41.875 90 45 90 c 3.194 0 6.309 -0.338 9.315 -0.971 c 0.368 -4.097 0.473 -9.966 0.417 -13.988 c 2.978 -2.561 4.948 -4.484 6.164 -9.312 c 1.964 -0.259 3.722 -1.051 5.303 -2.17 C 64.831 59.836 62.691 56.574 59.671 53.838 z" style="stroke: none; stroke-width: 1; stroke-dasharray: none; stroke-linecap: butt; stroke-linejoin: miter; stroke-miterlimit: 10; fill: rgb(52,96,143); fill-rule: nonzero; opacity: 1;" transform=" matrix(1 0 0 1 0 0) " stroke-linecap="round" />
	<path d="M 59.487 62.799 c -0.424 -0.111 -0.848 0.134 -0.967 0.556 c -1.217 4.328 -3.987 7.758 -8.577 10.137 c -1.332 0.69 -1.597 2.452 -0.596 3.569 c 3.034 3.384 3.077 8.477 0.705 12.65 c 1.442 -0.161 2.864 -0.387 4.261 -0.681 c 0.369 -4.096 0.475 -9.965 0.419 -13.989 c 2.978 -2.561 4.948 -4.484 6.164 -9.312 c 0.214 -0.028 0.425 -0.065 0.634 -0.106 c 0.225 -0.043 0.447 -0.096 0.667 -0.153 c 0.188 -0.049 0.374 -0.105 0.558 -0.164 c 0.112 -0.035 0.224 -0.07 0.335 -0.109 c 0.182 -0.065 0.363 -0.134 0.541 -0.207 c 0.046 -0.019 0.091 -0.039 0.137 -0.058 c 0.854 -0.366 1.664 -0.83 2.431 -1.372 c -0.271 -0.735 -0.58 -1.448 -0.912 -2.147 C 63.328 62.718 61.391 63.296 59.487 62.799 z" style="stroke: none; stroke-width: 1; stroke-dasharray: none; stroke-linecap: butt; stroke-linejoin: miter; stroke-miterlimit: 10; fill: rgb(48,78,130); fill-rule: nonzero; opacity: 1;" transform=" matrix(1 0 0 1 0 0) " stroke-linecap="round" />
	<path d="M 40.259 73.491 c -4.589 -2.378 -7.36 -5.808 -8.577 -10.137 c -0.119 -0.422 -0.543 -0.666 -0.967 -0.556 c -1.907 0.498 -3.847 -0.082 -5.81 -1.393 c -0.333 0.701 -0.643 1.415 -0.914 2.152 c 0.002 0.001 0.004 0.003 0.005 0.004 c 0.187 0.132 0.377 0.26 0.57 0.383 c 0.028 0.018 0.057 0.035 0.086 0.053 c 0.37 0.233 0.749 0.447 1.137 0.64 c 0.021 0.01 0.04 0.022 0.061 0.032 c 0.139 0.068 0.281 0.129 0.422 0.192 c 0.133 0.059 0.266 0.116 0.402 0.17 c 0.12 0.048 0.24 0.095 0.362 0.139 c 0.211 0.076 0.424 0.146 0.64 0.209 c 0.057 0.017 0.112 0.037 0.169 0.052 c 0.281 0.077 0.567 0.141 0.857 0.196 c 0.196 0.037 0.393 0.073 0.593 0.099 c 0.052 0.207 0.108 0.401 0.162 0.598 c 0.055 0.196 0.111 0.386 0.169 0.572 c 0.023 0.075 0.047 0.15 0.071 0.224 c 0.058 0.18 0.117 0.356 0.178 0.527 c 0.025 0.072 0.051 0.142 0.077 0.212 c 0.062 0.167 0.125 0.332 0.189 0.491 c 0.027 0.066 0.054 0.13 0.081 0.195 c 0.066 0.158 0.134 0.314 0.203 0.464 c 0.027 0.058 0.054 0.113 0.081 0.17 c 0.073 0.152 0.146 0.303 0.222 0.448 c 0.024 0.046 0.049 0.09 0.074 0.136 c 0.081 0.151 0.163 0.3 0.247 0.444 c 0.016 0.028 0.033 0.054 0.05 0.081 c 0.629 1.051 1.355 1.929 2.191 2.769 c 0.009 0.009 0.018 0.018 0.027 0.027 c 0.135 0.136 0.274 0.271 0.415 0.405 c 0.01 0.009 0.019 0.018 0.029 0.028 c 0.449 0.426 0.926 0.85 1.434 1.29 c 0.001 0.001 0.001 0.002 0.002 0.003 c 0.087 0.076 0.173 0.15 0.262 0.227 c -0.002 0.11 -0.002 0.225 -0.004 0.336 c 0 0.002 0.001 0.004 0.001 0.007 c -0.046 3.978 0.065 9.702 0.426 13.691 c 1.404 0.289 2.833 0.509 4.282 0.663 c -2.387 -4.178 -2.35 -9.286 0.691 -12.678 C 41.856 75.943 41.591 74.181 40.259 73.491 z" style="stroke: none; stroke-width: 1; stroke-dasharray: none; stroke-linecap: butt; stroke-linejoin: miter; stroke-miterlimit: 10; fill: rgb(48,78,130); fill-rule: nonzero; opacity: 1;" transform=" matrix(1 0 0 1 0 0) " stroke-linecap="round" />
	<path d="M 42.079 79.033 c 0.46 -0.311 0.921 -0.465 1.381 -0.584 c 0.46 -0.109 0.921 -0.16 1.381 -0.161 c 0.46 -0.001 0.921 0.05 1.381 0.159 c 0.46 0.118 0.921 0.274 1.381 0.586 c -0.46 0.312 -0.921 0.468 -1.381 0.586 c -0.46 0.109 -0.921 0.16 -1.381 0.159 c -0.46 -0.001 -0.921 -0.052 -1.381 -0.161 C 43 79.499 42.539 79.344 42.079 79.033 z" style="stroke: none; stroke-width: 1; stroke-dasharray: none; stroke-linecap: butt; stroke-linejoin: miter; stroke-miterlimit: 10; fill: rgb(48,78,130); fill-rule: nonzero; opacity: 1;" transform=" matrix(1 0 0 1 0 0) " stroke-linecap="round" />
	<path d="M 40.676 82.483 c 0.694 -0.311 1.388 -0.465 2.083 -0.584 c 0.694 -0.109 1.388 -0.16 2.083 -0.161 c 0.694 -0.001 1.388 0.05 2.083 0.159 c 0.694 0.118 1.388 0.274 2.083 0.586 c -0.694 0.312 -1.388 0.468 -2.083 0.586 c -0.694 0.109 -1.388 0.16 -2.083 0.159 c -0.694 -0.001 -1.388 -0.052 -2.083 -0.161 C 42.065 82.949 41.37 82.794 40.676 82.483 z" style="stroke: none; stroke-width: 1; stroke-dasharray: none; stroke-linecap: butt; stroke-linejoin: miter; stroke-miterlimit: 10; fill: rgb(48,78,130); fill-rule: nonzero; opacity: 1;" transform=" matrix(1 0 0 1 0 0) " stroke-linecap="round" />
	<path d="M 39.274 85.933 c 0.928 -0.311 1.856 -0.465 2.784 -0.584 c 0.928 -0.109 1.856 -0.16 2.784 -0.161 c 0.928 -0.001 1.856 0.05 2.784 0.159 c 0.928 0.118 1.856 0.274 2.784 0.586 c -0.928 0.312 -1.856 0.468 -2.784 0.586 c -0.928 0.109 -1.856 0.16 -2.784 0.159 c -0.928 -0.001 -1.856 -0.052 -2.784 -0.161 C 41.13 86.399 40.202 86.244 39.274 85.933 z" style="stroke: none; stroke-width: 1; stroke-dasharray: none; stroke-linecap: butt; stroke-linejoin: miter; stroke-miterlimit: 10; fill: rgb(48,78,130); fill-rule: nonzero; opacity: 1;" transform=" matrix(1 0 0 1 0 0) " stroke-linecap="round" />
	<path d="M 33.585 63.102 c 0.756 0.779 1.421 1.566 2.111 2.297 c 0.689 0.731 1.402 1.399 2.163 1.97 c 0.765 0.566 1.579 1.039 2.487 1.37 c 0.909 0.329 1.893 0.522 2.966 0.694 c -0.989 0.444 -2.12 0.594 -3.238 0.437 c -1.119 -0.155 -2.206 -0.625 -3.105 -1.306 c -0.907 -0.676 -1.633 -1.539 -2.198 -2.466 C 34.206 65.169 33.794 64.166 33.585 63.102 z" style="stroke: none; stroke-width: 1; stroke-dasharray: none; stroke-linecap: butt; stroke-linejoin: miter; stroke-miterlimit: 10; fill: rgb(48,78,130); fill-rule: nonzero; opacity: 1;" transform=" matrix(1 0 0 1 0 0) " stroke-linecap="round" />
	<path d="M 56.617 63.102 c -0.209 1.064 -0.621 2.067 -1.186 2.996 c -0.564 0.927 -1.291 1.791 -2.198 2.466 c -0.899 0.68 -1.986 1.15 -3.105 1.306 c -1.118 0.157 -2.249 0.007 -3.238 -0.437 c 1.072 -0.172 2.057 -0.365 2.966 -0.694 c 0.908 -0.331 1.723 -0.804 2.487 -1.37 c 0.762 -0.57 1.474 -1.239 2.163 -1.97 C 55.196 64.668 55.861 63.881 56.617 63.102 z" style="stroke: none; stroke-width: 1; stroke-dasharray: none; stroke-linecap: butt; stroke-linejoin: miter; stroke-miterlimit: 10; fill: rgb(48,78,130); fill-rule: nonzero; opacity: 1;" transform=" matrix(1 0 0 1 0 0) " stroke-linecap="round" />
	<path d="M 52.18 60.717 c -0.596 0.049 -1.066 0.103 -1.533 0.176 c -0.462 0.067 -0.905 0.143 -1.351 0.225 l -1.358 0.256 l -1.53 0.305 c 0.166 -0.584 0.581 -1.033 1.044 -1.372 c 0.471 -0.334 1.015 -0.556 1.581 -0.657 c 0.566 -0.102 1.159 -0.083 1.722 0.079 C 51.311 59.898 51.857 60.203 52.18 60.717 z" style="stroke: none; stroke-width: 1; stroke-dasharray: none; stroke-linecap: butt; stroke-linejoin: miter; stroke-miterlimit: 10; fill: rgb(48,78,130); fill-rule: nonzero; opacity: 1;" transform=" matrix(1 0 0 1 0 0) " stroke-linecap="round" />
	<path d="M 38.022 60.717 c 0.323 -0.514 0.869 -0.819 1.425 -0.988 c 0.563 -0.162 1.156 -0.181 1.722 -0.079 c 0.566 0.101 1.11 0.322 1.581 0.657 c 0.463 0.339 0.877 0.788 1.044 1.372 l -1.53 -0.305 l -1.358 -0.256 c -0.446 -0.081 -0.889 -0.157 -1.351 -0.225 C 39.089 60.82 38.619 60.766 38.022 60.717 z" style="stroke: none; stroke-width: 1; stroke-dasharray: none; stroke-linecap: butt; stroke-linejoin: miter; stroke-miterlimit: 10; fill: rgb(48,78,130); fill-rule: nonzero; opacity: 1;" transform=" matrix(1 0 0 1 0 0) " stroke-linecap="round" />
	<path d="M 45.101 59.256 c 1.663 0 2.885 -1.431 3.987 -3.271 c -0.457 -0.274 -0.597 -0.394 -0.941 -0.68 l -3.046 0 l -3.046 0 c -0.344 0.286 -0.484 0.406 -0.941 0.681 C 42.216 57.825 43.438 59.256 45.101 59.256 z" style="stroke: none; stroke-width: 1; stroke-dasharray: none; stroke-linecap: butt; stroke-linejoin: miter; stroke-miterlimit: 10; fill: rgb(240,180,121); fill-rule: nonzero; opacity: 1;" transform=" matrix(1 0 0 1 0 0) " stroke-linecap="round" />
	<path d="M 51.003 48.321 l -0.234 3.639 l 0 0 c -0.231 2.764 -2.051 5.14 -4.66 6.082 l 0 0 c -0.326 0.118 -0.667 0.177 -1.009 0.177 l 0 0 c -0.341 0 -0.683 -0.059 -1.009 -0.177 l 0 0 c -2.608 -0.943 -4.429 -3.318 -4.66 -6.082 l -0.22 -3.639 v -4.015 L 51.003 44.2 V 48.321 z" style="stroke: none; stroke-width: 1; stroke-dasharray: none; stroke-linecap: butt; stroke-linejoin: miter; stroke-miterlimit: 10; fill: rgb(255,204,153); fill-rule: nonzero; opacity: 1;" transform=" matrix(1 0 0 1 0 0) " stroke-linecap="round" />
	<path d="M 51.003 48.321 c 2.604 -3.875 1.422 -6.516 -2.77 -8.176 c 0.091 -0.383 0.619 -0.766 1.453 -1.149 c -3.448 -1.295 -7.548 -0.999 -9.424 2.03 c -2.57 0.866 -3.357 3.743 -1.049 7.294 c 0.258 -4.347 3.079 -3.994 6.487 -2.568 c 1.723 0.659 3.218 0.591 4.628 0.372 C 51.098 45.981 51.06 47.352 51.003 48.321 z" style="stroke: none; stroke-width: 1; stroke-dasharray: none; stroke-linecap: butt; stroke-linejoin: miter; stroke-miterlimit: 10; fill: rgb(68,68,68); fill-rule: nonzero; opacity: 1;" transform=" matrix(1 0 0 1 0 0) " stroke-linecap="round" />
	<path d="M 39.667 53.267 c -1.066 -0.31 -1.845 -1.294 -1.845 -2.459 V 49.62 c 0 -0.397 0.322 -0.719 0.719 -0.719 h 0.707 L 39.667 53.267 z" style="stroke: none; stroke-width: 1; stroke-dasharray: none; stroke-linecap: butt; stroke-linejoin: miter; stroke-miterlimit: 10; fill: rgb(255,204,153); fill-rule: nonzero; opacity: 1;" transform=" matrix(1 0 0 1 0 0) " stroke-linecap="round" />
	<path d="M 50.535 53.267 c 1.066 -0.31 1.845 -1.294 1.845 -2.46 V 49.62 c 0 -0.397 -0.322 -0.719 -0.719 -0.719 h -0.68 L 50.535 53.267 z" style="stroke: none; stroke-width: 1; stroke-dasharray: none; stroke-linecap: butt; stroke-linejoin: miter; stroke-miterlimit: 10; fill: rgb(255,204,153); fill-rule: nonzero; opacity: 1;" transform=" matrix(1 0 0 1 0 0) " stroke-linecap="round" />
	<path d="M 47.597 53.595 c -1.664 2.187 -3.328 2.202 -4.992 0 H 47.597 z" style="stroke: none; stroke-width: 1; stroke-dasharray: none; stroke-linecap: butt; stroke-linejoin: miter; stroke-miterlimit: 10; fill: rgb(255,255,255); fill-rule: nonzero; opacity: 1;" transform=" matrix(1 0 0 1 0 0) " stroke-linecap="round" />
	<path d="M 41.945 49.43 c 0.397 -0.87 1.779 -0.873 2.176 0 c -0.472 0.089 -0.774 0.081 -1.088 0.089 C 42.719 49.509 42.417 49.518 41.945 49.43 z" style="stroke: none; stroke-width: 1; stroke-dasharray: none; stroke-linecap: butt; stroke-linejoin: miter; stroke-miterlimit: 10; fill: rgb(229,171,115); fill-rule: nonzero; opacity: 1;" transform=" matrix(1 0 0 1 0 0) " stroke-linecap="round" />
	<path d="M 46.081 49.43 c 0.397 -0.87 1.779 -0.873 2.176 0 c -0.472 0.089 -0.774 0.081 -1.088 0.089 C 46.855 49.509 46.552 49.518 46.081 49.43 z" style="stroke: none; stroke-width: 1; stroke-dasharray: none; stroke-linecap: butt; stroke-linejoin: miter; stroke-miterlimit: 10; fill: rgb(229,171,115); fill-rule: nonzero; opacity: 1;" transform=" matrix(1 0 0 1 0 0) " stroke-linecap="round" />
	<path d="M 58.024 55.233 c 0.401 -0.549 0.973 -1.026 1.648 -1.395 c 3.02 2.736 5.159 5.998 6.529 9.721 c -0.565 0.4 -1.153 0.756 -1.765 1.062 C 62.858 61.157 60.745 58.013 58.024 55.233 z" style="stroke: none; stroke-width: 1; stroke-dasharray: none; stroke-linecap: butt; stroke-linejoin: miter; stroke-miterlimit: 10; fill: rgb(48,78,130); fill-rule: nonzero; opacity: 1;" transform=" matrix(1 0 0 1 0 0) " stroke-linecap="round" />
	<path d="M 32.168 55.233 c -0.401 -0.549 -0.973 -1.026 -1.648 -1.395 c -3.02 2.736 -5.159 5.998 -6.529 9.721 c 0.565 0.4 1.153 0.756 1.765 1.062 C 27.334 61.157 29.446 58.013 32.168 55.233 z" style="stroke: none; stroke-width: 1; stroke-dasharray: none; stroke-linecap: butt; stroke-linejoin: miter; stroke-miterlimit: 10; fill: rgb(48,78,130); fill-rule: nonzero; opacity: 1;" transform=" matrix(1 0 0 1 0 0) " stroke-linecap="round" />
	<path d="M 45.096 51.674 c 0.219 -0.067 0.47 0.013 0.735 0.156 c -0.372 0.201 -0.737 0.332 -1.111 0.429 c -0.154 0.04 -0.311 -0.052 -0.35 -0.206 c -0.012 -0.047 -0.012 -0.094 -0.001 -0.139 l 0.037 -0.153 c 0.024 -0.1 0.065 -0.246 0.095 -0.4 c 0.041 -0.152 0.067 -0.316 0.122 -0.478 c 0.099 -0.326 0.22 -0.664 0.471 -0.983 C 44.958 50.554 45.289 51.152 45.096 51.674 z" style="stroke: none; stroke-width: 1; stroke-dasharray: none; stroke-linecap: butt; stroke-linejoin: miter; stroke-miterlimit: 10; fill: rgb(229,171,115); fill-rule: nonzero; opacity: 1;" transform=" matrix(1 0 0 1 0 0) " stroke-linecap="round" />
	<path d="M 24.737 36.049 h -2.38 c -1.374 0 -2.488 -1.114 -2.488 -2.488 v 0 c 0 -1.374 1.114 -2.488 2.488 -2.488 h 1.371 c 1.374 0 2.488 1.114 2.488 2.488 v 1.009 C 26.216 35.387 25.554 36.049 24.737 36.049 z" style="stroke: none; stroke-width: 1; stroke-dasharray: none; stroke-linecap: butt; stroke-linejoin: miter; stroke-miterlimit: 10; fill: rgb(255,204,154); fill-rule: nonzero; opacity: 1;" transform=" matrix(1 0 0 1 0 0) " stroke-linecap="round" />
	<path d="M 67.643 36.049 h -2.104 c -0.969 0 -1.754 -0.785 -1.754 -1.754 v -0.733 c 0 -1.374 1.114 -2.488 2.488 -2.488 h 1.371 c 1.374 0 2.488 1.114 2.488 2.488 v 0 C 70.131 34.936 69.017 36.049 67.643 36.049 z" style="stroke: none; stroke-width: 1; stroke-dasharray: none; stroke-linecap: butt; stroke-linejoin: miter; stroke-miterlimit: 10; fill: rgb(255,204,154); fill-rule: nonzero; opacity: 1;" transform=" matrix(1 0 0 1 0 0) " stroke-linecap="round" />
</g>
</svg>