<?xml version="1.0" encoding="iso-8859-1"?>
<!-- Uploaded to: SVG Repo, www.svgrepo.com, Generator: SVG Repo Mixer Tools -->
<svg version="1.1" id="Layer_1" xmlns="http://www.w3.org/2000/svg" xmlns:xlink="http://www.w3.org/1999/xlink" 
	 viewBox="0 0 512 512" xml:space="preserve">
<polygon style="fill:#FFC674;" points="217.213,405.902 217.213,161.776 67.516,161.776 67.516,405.902 67.516,446.895 
	67.516,487.889 342.437,487.889 342.437,405.902 "/>
<path style="fill:#FFCEB3;" d="M307.65,218.396c0-27.967-22.672-50.639-50.639-50.639c-22.072,0-39.963,17.893-39.963,39.963v54.398
	h90.604v-43.723H307.65z"/>
<path style="fill:#FFA6B7;" d="M386.552,391.816c0-23.993-19.45-43.443-43.443-43.443h-35.46v-86.255h-90.604v86.255v5.461v1.257
	c0,26.941,21.84,48.781,48.781,48.781h77.281v11.208h43.443v-23.264H386.552z"/>
<rect x="343.115" y="415.079" style="fill:#FFCEB3;" width="43.442" height="85.263"/>
<path d="M109.936,445.09c-6.438,0-11.656-5.22-11.656-11.656V243.229c0-6.436,5.218-11.656,11.656-11.656
	c6.438,0,11.656,5.22,11.656,11.656v190.207C121.592,439.872,116.374,445.09,109.936,445.09z"/>
<path d="M109.94,218.177c-0.758,0-1.527-0.082-2.285-0.233c-0.734-0.152-1.469-0.372-2.18-0.663
	c-0.699-0.291-1.375-0.654-2.005-1.074c-0.641-0.418-1.236-0.908-1.772-1.444s-1.026-1.132-1.457-1.773
	c-0.42-0.629-0.781-1.305-1.072-2.015c-0.291-0.701-0.513-1.434-0.664-2.18c-0.152-0.747-0.221-1.515-0.221-2.273
	s0.07-1.527,0.221-2.285c0.152-0.734,0.373-1.469,0.664-2.18c0.291-0.699,0.653-1.375,1.072-2.005
	c0.431-0.641,0.921-1.237,1.457-1.773s1.131-1.026,1.772-1.457c0.629-0.418,1.305-0.781,2.005-1.072
	c0.711-0.291,1.445-0.512,2.18-0.663c1.504-0.304,3.054-0.304,4.557,0c0.746,0.152,1.48,0.372,2.18,0.663
	c0.711,0.291,1.387,0.654,2.016,1.072c0.641,0.431,1.236,0.921,1.772,1.457s1.026,1.132,1.445,1.773
	c0.42,0.629,0.781,1.305,1.072,2.005c0.291,0.711,0.513,1.445,0.664,2.18c0.152,0.758,0.233,1.527,0.233,2.285
	s-0.082,1.527-0.233,2.273c-0.152,0.746-0.373,1.48-0.664,2.18c-0.291,0.71-0.653,1.386-1.072,2.015
	c-0.42,0.641-0.909,1.237-1.445,1.773s-1.131,1.026-1.772,1.444c-0.629,0.42-1.305,0.782-2.016,1.074
	c-0.699,0.291-1.434,0.512-2.18,0.663C111.467,218.094,110.697,218.177,109.94,218.177z"/>
<path style="fill:#FFCEB3;" d="M335.611,354.16l-70.743-41.649c-8.477-7.957-12.708-17.808-11.845-27.572l5.808-84.567
	c1.996-12.542,13.375-21.419,26.249-20.279l0,0c15.103,1.414,21.203,15.012,20.372,24.405l-5.906,85.667l54.509,33.19
	c8.269,5.035,11.057,15.72,6.3,24.152l0,0C355.421,356.258,344.268,359.256,335.611,354.16z"/>
<path style="fill:#F5CDB3;" d="M340.982,86.948v39.447c0,27.418-22.306,49.724-49.724,49.724s-49.724-22.306-49.724-49.724V86.948
	H340.982z"/>
<path style="fill:#A67CAB;" d="M273.266,126.396c0-9.862,0-39.447,0-39.447h68.59c-2.722-41.972-28.503-75.293-71.151-75.293
	c-47.272,0-70.277,36.137-70.277,80.554v124.891h99.765C290.613,208.031,273.266,187.643,273.266,126.396z"/>
<polygon points="287.826,164.291 287.828,164.297 287.839,164.298 "/>
<path d="M384.892,274.067c-6.436,0-11.656-5.22-11.656-11.656c0-10.318,4.406-16.028,7.322-19.806
	c2.042-2.647,2.466-3.197,2.466-5.567c0-2.368-0.424-2.92-2.466-5.565c-2.916-3.779-7.322-9.49-7.322-19.808
	c0-10.317,4.406-16.027,7.322-19.805c2.042-2.646,2.466-3.196,2.466-5.563c0-6.436,5.22-11.656,11.656-11.656
	s11.656,5.22,11.656,11.656c0,10.318-4.407,16.028-7.323,19.806c-2.041,2.646-2.465,3.196-2.465,5.562
	c0,2.37,0.424,2.921,2.466,5.567c2.916,3.778,7.322,9.489,7.322,19.806c0,10.319-4.406,16.029-7.322,19.808
	c-2.042,2.646-2.466,3.196-2.466,5.565C396.548,268.847,391.33,274.067,384.892,274.067z"/>
<path d="M434.696,296.285c-6.436,0-11.656-5.22-11.656-11.656c0-10.319,4.406-16.029,7.322-19.808
	c2.042-2.646,2.466-3.196,2.466-5.565c0-2.37-0.424-2.921-2.466-5.567c-2.916-3.778-7.322-9.489-7.322-19.806
	s4.406-16.027,7.322-19.806c2.042-2.646,2.466-3.196,2.466-5.563c0-6.436,5.22-11.656,11.656-11.656s11.656,5.22,11.656,11.656
	c0,10.318-4.406,16.027-7.322,19.806c-2.042,2.646-2.466,3.196-2.466,5.563c0,2.368,0.424,2.92,2.466,5.565
	c2.916,3.779,7.322,9.491,7.322,19.808s-4.406,16.028-7.322,19.807c-2.042,2.646-2.466,3.196-2.466,5.566
	C446.352,291.067,441.132,296.285,434.696,296.285z"/>
<path d="M373.458,345.864c3.114-12.297-1.956-25.531-13.34-32.463l-40.813-24.85v-26.432v-43.723
	c0-12.291-3.592-23.752-9.762-33.416c24.94-7.8,43.095-31.106,43.095-58.584V91.338c0.657-1.616,0.965-3.369,0.85-5.145
	C350.144,34.639,316.876,0,270.705,0c-49.773,0-81.933,36.195-81.933,92.21v57.91H67.516c-6.438,0-11.656,5.22-11.656,11.656
	v326.113c0,6.436,5.218,11.656,11.656,11.656h263.938v0.8c0,6.436,5.22,11.656,11.656,11.656h43.443
	c6.436,0,11.656-5.22,11.656-11.656v-85.265v-23.263C398.208,372.643,388.359,355.734,373.458,345.864z M350.203,341.784
	c-1.129,2.002-2.896,2.731-3.85,2.987c-0.953,0.256-2.848,0.51-4.83-0.655l-69.544-40.944c-5.261-5.291-7.863-11.362-7.346-17.205
	c0.007-0.076,0.013-0.153,0.017-0.228l3.914-56.981h23.532l-4.179,60.607c-0.3,4.344,1.847,8.492,5.566,10.757l54.509,33.19
	C350.911,335.087,351.88,338.809,350.203,341.784z M329.326,126.396c0,20.991-17.077,38.068-38.068,38.068
	c-1.157,0-2.3-0.065-3.43-0.168c-1.776-10.186-2.906-22.637-2.906-37.902v-27.79h44.406v27.791H329.326z M212.084,92.21
	c0-16.162,4.228-68.898,58.621-68.898c35.24,0,52.541,25.818,57.866,51.981h-55.305c-6.436,0-11.656,5.22-11.656,11.656v39.448
	c0,39.446,6.85,63.515,15.195,79.049h-64.721V92.21z M245.2,228.758l-1.491,21.704h-14.84v-21.704H245.2z M330.781,476.233H79.172
	V173.432h109.601v43.67c0,6.436,5.218,11.656,11.656,11.656h4.963v33.36v92.972c0,1.43,0.068,2.845,0.167,4.251v46.561
	c0,6.436,5.218,11.656,11.656,11.656h113.568v58.675H330.781z M374.896,488.688h-20.131v-61.954h20.131V488.688z M374.896,403.423
	h-20.139c-0.235-6.23-5.361-11.207-11.648-11.207h-77.281c-19.307,0-35.211-14.815-36.959-33.674v-84.768h13.239l-0.704,10.261
	c-1.146,13.394,4.351,26.521,15.488,36.975c0.629,0.59,1.321,1.108,2.064,1.546l37.038,21.806v4.012
	c0,6.436,5.22,11.656,11.656,11.656h14.957l7.091,4.175c4.618,2.719,9.755,4.108,14.965,4.108c2.582,0,5.181-0.34,7.744-1.029
	c2.44-0.656,4.749-1.603,6.891-2.808c9.329,5.546,15.599,15.723,15.599,27.341v11.607H374.896z"/>
</svg>