<?xml version="1.0" encoding="UTF-8" standalone="no"?> <svg xmlns="http://www.w3.org/2000/svg" width="512" height="512" viewBox="0 0 512 512">    <g>    <path d="M200,112H152a80,80,0,0,0-80,80V416H40v24h64V416H248v24h64V416H280V192A80,80,0,0,0,200,112ZM176,384a40,40,0,1,1,40-40A40,40,0,0,1,176,384Zm0-104a64,64,0,1,1,64-64A64,64,0,0,1,176,280Z" fill="#57a4ff"/>    <circle cx="176" cy="344" r="16" fill="#57a4ff"/>    <rect x="400" y="216" width="48" height="144" fill="#57a4ff"/>    <g>      <path d="M328,8H23.96a7.989,7.989,0,0,0-8,8L16,416a8,8,0,0,0,8,8h8v16a8,8,0,0,0,8,8h8v48a8,8,0,0,0,8,8H88a8,8,0,0,0,8-8V448h8a8,8,0,0,0,8-8V424H240v16a8,8,0,0,0,8,8h8v48a8,8,0,0,0,8,8h32a8,8,0,0,0,8-8V448h8a8,8,0,0,0,8-8V424h8a8,8,0,0,0,8-8V16A8,8,0,0,0,328,8ZM80,488H64V448H80Zm16-56H48v-8H96ZM80,408V192a72.083,72.083,0,0,1,72-72h48a72.083,72.083,0,0,1,72,72V408Zm208,80H272V448h16Zm16-56H256v-8h48Zm16-24H288V192a88.1,88.1,0,0,0-88-88H152a88.1,88.1,0,0,0-88,88V408H32L31.96,24H320Z" fill="#004fac"/>      <path d="M176,144a72,72,0,1,0,72,72A72.081,72.081,0,0,0,176,144Zm0,128a56,56,0,0,1-8-111.419V184a8,8,0,0,0,16,0V160.581A56,56,0,0,1,176,272Z" fill="#004fac"/>      <path d="M176,296a48,48,0,1,0,48,48A48.054,48.054,0,0,0,176,296Zm0,80a32,32,0,1,1,32-32A32.036,32.036,0,0,1,176,376Z" fill="#004fac"/>      <path d="M176,320a24,24,0,1,0,24,24A24.027,24.027,0,0,0,176,320Zm0,32a8,8,0,1,1,8-8A8.009,8.009,0,0,1,176,352Z" fill="#004fac"/>      <path d="M496,128a72,72,0,1,0-111.13,60.39A7.98,7.98,0,0,0,384,192v24a8,8,0,0,0,8,8V360a8,8,0,0,0,8,8V496a8,8,0,0,0,8,8h32a8,8,0,0,0,8-8V368a8,8,0,0,0,8-8V224a8,8,0,0,0,8-8V192a7.98,7.98,0,0,0-.87-3.61A71.99,71.99,0,0,0,496,128ZM432,488H416V368h16Zm8-136H408V224h32Zm8-144H400v-8h48Zm-24-24a56,56,0,1,1,56-56A56.062,56.062,0,0,1,424,184Z" fill="#004fac"/>      <circle cx="424" cy="96" r="8" fill="#004fac"/>      <circle cx="424" cy="160" r="8" fill="#004fac"/>      <circle cx="456" cy="128" r="8" fill="#004fac"/>      <circle cx="392" cy="128" r="8" fill="#004fac"/>    </g>  </g></svg>