<?xml version="1.0" encoding="iso-8859-1"?>
<!-- Generator: Adobe Illustrator 19.0.0, SVG Export Plug-In . SVG Version: 6.00 Build 0)  -->
<svg version="1.1" xmlns="http://www.w3.org/2000/svg" xmlns:xlink="http://www.w3.org/1999/xlink" x="0px" y="0px"
	 viewBox="0 0 512 512" style="enable-background:new 0 0 512 512;" xml:space="preserve">
<g id="A72_x2C__Massage_x2C__Spa_x2C__Table_x2C__Therapy">
	<g>
		<g>
			<rect x="406" y="428.16" style="fill:#9BC9FF;" width="60" height="40"/>
			<polygon style="fill:#9BC9FF;" points="466,388.16 466,428.16 406,428.16 106,428.16 46,428.16 46,388.16 			"/>
			<path style="fill:#FFFFFF;" d="M466,339.16v49H46v-49c0-11.601,9.4-21,21-21h64h55h45h75h90h49
				C456.6,318.16,466,327.56,466,339.16z"/>
			<rect x="446" y="168.16" style="fill:#1E81CE;" width="20" height="20"/>
			<rect x="426" y="188.16" style="fill:#1E81CE;" width="20" height="20"/>
			<rect x="426" y="148.16" style="fill:#1E81CE;" width="20" height="20"/>
			<rect x="406" y="168.16" style="fill:#1E81CE;" width="20" height="20"/>
			<path style="fill:#9BC9FF;" d="M396,308.16v10h-90v-30h-75c-4.14,0-7.89,1.68-10.6,4.39c-2.72,2.71-4.4,6.47-4.4,10.61
				c0,8.28,6.72,15,15,15h-45v-40.34c0-10.86,8.81-19.66,19.67-19.66H206h40h40h60C373.61,258.16,396,280.54,396,308.16z"/>
			<path style="fill:#9BC9FF;" d="M346,168.16v90h-60v-51.43l-40,51.43h-40l63.84-82.09c3.891-4.99,9.86-7.91,16.191-7.91H306H346z"
				/>
			<path style="fill:#9BC9FF;" d="M291,88.16c13.81,0,25,11.19,25,25c0,13.8-11.19,25-25,25s-25-11.2-25-25
				C266,99.35,277.19,88.16,291,88.16z"/>
			<path style="fill:#9BC9FF;" d="M306,288.16v30h-75c-8.28,0-15-6.72-15-15c0-4.141,1.68-7.9,4.4-10.61
				c2.71-2.71,6.46-4.39,10.6-4.39H306z"/>
			<path style="fill:#9BC9FF;" d="M131,268.16c13.81,0,25,11.189,25,25c0,13.8-11.19,25-25,25c-13.81,0-25-11.2-25-25
				C106,279.35,117.19,268.16,131,268.16z"/>
			<path style="fill:#9BC9FF;" d="M125.03,80.1c10.23,0.11,18.46,5.68,18.46,12.54c0,6.87-8.26,12.45-18.5,12.53
				c7.15,7.31,9.04,17.08,4.18,21.93c-4.85,4.86-14.63,2.95-21.94-4.22c-0.11,10.22-5.68,18.45-12.53,18.45
				c-6.87,0-12.44-8.25-12.54-18.5c-7.31,7.15-17.07,9.04-21.91,4.19c-4.86-4.86-2.97-14.64,4.21-21.94
				C54.24,104.96,46,99.4,46,92.54C46,85.67,54.26,80.1,64.5,80c-7.15-7.3-9.04-17.07-4.19-21.91c4.86-4.86,14.64-2.97,21.95,4.21
				c0.11-10.22,5.68-18.46,12.53-18.46c6.87,0,12.46,8.26,12.54,18.5c7.31-7.15,17.07-9.04,21.93-4.18
				C134.11,63.01,132.21,72.79,125.03,80.1z"/>
			<rect x="46" y="428.16" style="fill:#9BC9FF;" width="60" height="40"/>
			<rect x="86" y="208.16" style="fill:#1E81CE;" width="20" height="20"/>
			<rect x="66" y="228.16" style="fill:#1E81CE;" width="20" height="20"/>
			<rect x="66" y="188.16" style="fill:#1E81CE;" width="20" height="20"/>
			<rect x="46" y="208.16" style="fill:#1E81CE;" width="20" height="20"/>
			<path style="fill:#1E81CE;" d="M466,438.16c-5.522,0-10-4.478-10-10v-40c0-5.522,4.478-10,10-10s10,4.478,10,10v40
				C476,433.683,471.522,438.16,466,438.16z"/>
			<path style="fill:#1E81CE;" d="M46,438.16c-5.523,0-10-4.478-10-10v-40c0-5.522,4.477-10,10-10s10,4.478,10,10v40
				C56,433.683,51.523,438.16,46,438.16z"/>
			<path style="fill:#1E81CE;" d="M406,438.16H106c-5.523,0-10-4.478-10-10c0-5.522,4.477-10,10-10h300c5.522,0,10,4.478,10,10
				C416,433.683,411.522,438.16,406,438.16z"/>
			<path style="fill:#1E81CE;" d="M466,398.16H46c-5.523,0-10-4.478-10-10v-49c0-17.094,13.907-31,31-31h119c5.523,0,10,4.478,10,10
				c0,5.522-4.477,10-10,10H67c-6.065,0-11,4.935-11,11v39h400v-39c0-6.065-4.935-11-11-11h-49c-5.522,0-10-4.478-10-10
				c0-5.522,4.478-10,10-10h49c17.094,0,31,13.906,31,31v49C476,393.683,471.522,398.16,466,398.16z"/>
			<path style="fill:#1E81CE;" d="M94.7,151.33c-8.008,0-14.953-5.133-18.944-13.018c-2.779,0.917-5.603,1.398-8.368,1.398
				c-5.546,0-10.595-1.999-14.216-5.627c-5.671-5.671-6.951-14.223-4.185-22.623C41.12,107.462,36,100.526,36,92.54
				c0-8.015,5.142-14.964,13.038-18.954c-2.744-8.391-1.456-16.922,4.208-22.574c3.621-3.621,8.674-5.619,14.222-5.619
				c2.782,0,5.62,0.486,8.412,1.412c3.996-7.854,10.926-12.965,18.91-12.965c8.023,0,14.972,5.131,18.959,13.014
				c2.774-0.914,5.591-1.393,8.351-1.393c5.548,0,10.602,1.999,14.231,5.628c5.669,5.668,6.943,14.219,4.175,22.623
				c7.865,3.995,12.984,10.934,12.984,18.928c0,8.028-5.142,14.979-13.039,18.963c2.736,8.393,1.445,16.924-4.217,22.575
				c-3.607,3.614-8.655,5.613-14.199,5.613c-0.001,0-0.001,0-0.002,0c-2.785-0.001-5.628-0.488-8.425-1.417
				C109.612,146.222,102.683,151.33,94.7,151.33z M82.162,112.83c1.291,0,2.592,0.25,3.831,0.764
				c3.701,1.536,6.127,5.132,6.166,9.139c0.042,4.293,1.542,7.195,2.537,8.275c0.992-1.079,2.488-3.968,2.534-8.236
				c0.043-4.007,2.474-7.602,6.178-9.133c3.703-1.532,7.963-0.705,10.824,2.102c2.772,2.719,5.799,3.979,7.646,4.047
				c-0.063-1.468-1.049-4.571-4.037-7.626c-2.804-2.867-3.624-7.131-2.083-10.834c1.54-3.703,5.144-6.126,9.154-6.158
				c4.286-0.034,7.184-1.536,8.26-2.531c-1.075-0.993-3.968-2.494-8.25-2.54c-4.008-0.043-7.604-2.476-9.135-6.181
				c-1.531-3.705-0.701-7.966,2.108-10.826c2.996-3.05,3.992-6.155,4.06-7.629c-1.838,0.063-4.862,1.315-7.633,4.025
				c-2.867,2.804-7.132,3.624-10.834,2.084c-3.703-1.541-6.126-5.144-6.158-9.154c-0.034-4.284-1.536-7.179-2.534-8.256
				c-0.993,1.081-2.492,3.974-2.538,8.246c-0.044,4.008-2.476,7.604-6.181,9.134c-3.703,1.532-7.966,0.702-10.826-2.108
				c-2.77-2.721-5.799-3.977-7.643-4.039c0.066,1.469,1.055,4.565,4.034,7.607c2.805,2.863,3.629,7.125,2.094,10.827
				c-1.535,3.703-5.132,6.131-9.14,6.17c-4.292,0.042-7.194,1.544-8.275,2.539c1.081,0.993,3.976,2.492,8.255,2.542
				c4.008,0.047,7.601,2.483,9.128,6.189c1.527,3.706,0.694,7.965-2.116,10.823c-2.998,3.047-3.985,6.148-4.046,7.616
				c1.84-0.068,4.858-1.321,7.625-4.027C77.073,113.817,79.597,112.83,82.162,112.83z"/>
			<path style="fill:#1E81CE;" d="M106,478.16H46c-5.523,0-10-4.478-10-10v-40c0-5.522,4.477-10,10-10h60c5.523,0,10,4.478,10,10v40
				C116,473.683,111.523,478.16,106,478.16z M56,458.16h40v-20H56V458.16z"/>
			<path style="fill:#1E81CE;" d="M466,478.16h-60c-5.522,0-10-4.478-10-10v-40c0-5.522,4.478-10,10-10h60c5.522,0,10,4.478,10,10
				v40C476,473.683,471.522,478.16,466,478.16z M416,458.16h40v-20h-40V458.16z"/>
			<path style="fill:#1E81CE;" d="M396,328.16h-90c-5.522,0-10-4.478-10-10c0-5.522,4.478-10,10-10h80c0-22.056-17.944-40-40-40
				c-5.522,0-10-4.478-10-10c0-5.523,4.478-10,10-10c33.084,0,60,26.916,60,60v10C406,323.683,401.522,328.16,396,328.16z"/>
			<path style="fill:#1E81CE;" d="M231,328.16h-45c-5.523,0-10-4.478-10-10v-40.34c0-16.355,13.31-29.66,29.67-29.66H206
				c5.523,0,10,4.477,10,10c0,5.522-4.477,10-10,10h-0.33c-5.332,0-9.67,4.334-9.67,9.66v30.34h35c5.523,0,10,4.478,10,10
				C241,323.683,236.523,328.16,231,328.16z"/>
			<path style="fill:#1E81CE;" d="M286,268.16h-40c-5.523,0-10-4.478-10-10c0-5.523,4.477-10,10-10h40c5.522,0,10,4.477,10,10
				C296,263.683,291.522,268.16,286,268.16z"/>
			<path style="fill:#1E81CE;" d="M131,328.16c-19.299,0-35-15.701-35-35c0-19.299,15.701-35,35-35s35,15.701,35,35
				C166,312.459,150.299,328.16,131,328.16z M131,278.16c-8.271,0-15,6.729-15,15c0,8.271,6.729,15,15,15s15-6.729,15-15
				C146,284.889,139.271,278.16,131,278.16z"/>
			<path style="fill:#1E81CE;" d="M291,148.16c-19.299,0-35-15.701-35-35c0-19.299,15.701-35,35-35s35,15.701,35,35
				C326,132.459,310.299,148.16,291,148.16z M291,98.16c-8.272,0-15,6.729-15,15s6.728,15,15,15s15-6.729,15-15
				S299.272,98.16,291,98.16z"/>
			<path style="fill:#1E81CE;" d="M306,328.16h-75c-13.785,0-25-11.215-25-25c0-6.693,2.607-12.977,7.341-17.694
				c4.707-4.707,10.983-7.306,17.659-7.306h75c5.522,0,10,4.478,10,10v30C316,323.683,311.522,328.16,306,328.16z M231,298.16
				c-1.8,0-2.983,0.915-3.529,1.461c-0.953,0.949-1.471,2.202-1.471,3.539c0,2.757,2.243,5,5,5h65v-10H231z"/>
			<path style="fill:#1E81CE;" d="M346,268.16h-60c-5.522,0-10-4.478-10-10v-22.284L253.894,264.3
				c-1.895,2.436-4.808,3.86-7.894,3.86h-40c-3.819,0-7.305-2.176-8.983-5.606c-1.678-3.431-1.255-7.518,1.089-10.533l63.84-82.09
				c5.835-7.484,14.61-11.77,24.084-11.77H346c5.522,0,10,4.477,10,10v90C356,263.683,351.522,268.16,346,268.16z M296,248.16h40
				v-70h-49.97c-3.267,0-6.293,1.479-8.305,4.059l-51.281,65.941h14.664l36.998-47.569c2.622-3.372,7.095-4.708,11.139-3.32
				c4.041,1.387,6.755,5.187,6.755,9.459V248.16z"/>
		</g>
	</g>
</g>
<g id="Layer_1">
</g>
</svg>
