<?xml version="1.0" encoding="UTF-8" standalone="no"?>
<svg
   inkscape:export-ydpi="576"
   inkscape:export-xdpi="576"
   inkscape:export-filename="/media/taufikramadhan/Data/Tr Design Studio/Project Design/TR Creative Design/Icon Design/Project Hiring/Icon Icons/009 -  Hotel And Holidays/Send/4 - Filled Line/SVG/25 - Breakfast.png"
   width="64pt"
   height="64pt"
   viewBox="0 0 22.577778 22.577778"
   version="1.1"
   id="svg831"
   inkscape:version="1.1.1 (1:1.1+202109281949+c3084ef5ed)"
   sodipodi:docname="26 - Hairdryer.svg"
   xmlns:inkscape="http://www.inkscape.org/namespaces/inkscape"
   xmlns:sodipodi="http://sodipodi.sourceforge.net/DTD/sodipodi-0.dtd"
   xmlns="http://www.w3.org/2000/svg"
   xmlns:svg="http://www.w3.org/2000/svg"
   xmlns:rdf="http://www.w3.org/1999/02/22-rdf-syntax-ns#"
   xmlns:cc="http://creativecommons.org/ns#"
   xmlns:dc="http://purl.org/dc/elements/1.1/">
  <defs
     id="defs825">
    <pattern
       id="EMFhbasepattern"
       patternUnits="userSpaceOnUse"
       width="6"
       height="6"
       x="0"
       y="0" />
    <pattern
       id="EMFhbasepattern-9"
       patternUnits="userSpaceOnUse"
       width="6"
       height="6"
       x="0"
       y="0" />
    <pattern
       id="EMFhbasepattern-0"
       patternUnits="userSpaceOnUse"
       width="6"
       height="6"
       x="0"
       y="0" />
    <pattern
       id="EMFhbasepattern-7"
       patternUnits="userSpaceOnUse"
       width="6"
       height="6"
       x="0"
       y="0" />
    <pattern
       id="EMFhbasepattern-2"
       patternUnits="userSpaceOnUse"
       width="6"
       height="6"
       x="0"
       y="0" />
    <pattern
       id="EMFhbasepattern-98"
       patternUnits="userSpaceOnUse"
       width="6"
       height="6"
       x="0"
       y="0" />
    <pattern
       id="EMFhbasepattern-6"
       patternUnits="userSpaceOnUse"
       width="6"
       height="6"
       x="0"
       y="0" />
    <pattern
       id="EMFhbasepattern-01"
       patternUnits="userSpaceOnUse"
       width="6"
       height="6"
       x="0"
       y="0" />
    <pattern
       id="EMFhbasepattern-07"
       patternUnits="userSpaceOnUse"
       width="6"
       height="6"
       x="0"
       y="0" />
    <pattern
       id="EMFhbasepattern-8"
       patternUnits="userSpaceOnUse"
       width="6"
       height="6"
       x="0"
       y="0" />
    <pattern
       id="EMFhbasepattern-4"
       patternUnits="userSpaceOnUse"
       width="6"
       height="6"
       x="0"
       y="0" />
    <pattern
       id="EMFhbasepattern-40"
       patternUnits="userSpaceOnUse"
       width="6"
       height="6"
       x="0"
       y="0" />
    <pattern
       id="EMFhbasepattern-08"
       patternUnits="userSpaceOnUse"
       width="6"
       height="6"
       x="0"
       y="0" />
    <pattern
       id="EMFhbasepattern-04"
       patternUnits="userSpaceOnUse"
       width="6"
       height="6"
       x="0"
       y="0" />
    <pattern
       id="EMFhbasepattern-014"
       patternUnits="userSpaceOnUse"
       width="6"
       height="6"
       x="0"
       y="0" />
    <pattern
       id="EMFhbasepattern-27"
       patternUnits="userSpaceOnUse"
       width="6"
       height="6"
       x="0"
       y="0" />
    <pattern
       id="EMFhbasepattern-09"
       patternUnits="userSpaceOnUse"
       width="6"
       height="6"
       x="0"
       y="0" />
    <pattern
       id="EMFhbasepattern-5"
       patternUnits="userSpaceOnUse"
       width="6"
       height="6"
       x="0"
       y="0" />
    <pattern
       id="EMFhbasepattern-018"
       patternUnits="userSpaceOnUse"
       width="6"
       height="6"
       x="0"
       y="0" />
  </defs>
  <sodipodi:namedview
     id="base"
     pagecolor="#ffffff"
     bordercolor="#666666"
     borderopacity="1.0"
     inkscape:pageopacity="0.0"
     inkscape:pageshadow="2"
     inkscape:zoom="3.0761719"
     inkscape:cx="31.370159"
     inkscape:cy="45.83619"
     inkscape:document-units="pt"
     inkscape:current-layer="layer1"
     showgrid="false"
     units="pt"
     inkscape:window-width="1366"
     inkscape:window-height="705"
     inkscape:window-x="0"
     inkscape:window-y="31"
     inkscape:window-maximized="1"
     inkscape:pagecheckerboard="true"
     inkscape:showpageshadow="false"
     inkscape:object-paths="true"
     inkscape:snap-intersection-paths="true"
     inkscape:snap-smooth-nodes="true"
     inkscape:snap-midpoints="true"
     showguides="false"
     inkscape:snap-bbox="true"
     inkscape:bbox-nodes="true"
     inkscape:snap-nodes="false"
     inkscape:snap-global="true"
     inkscape:document-rotation="0">
    <inkscape:grid
       type="xygrid"
       id="grid1378" />
    <sodipodi:guide
       position="0.97013831,21.607643"
       orientation="78.000048,0"
       id="guide1380"
       inkscape:locked="false" />
    <sodipodi:guide
       position="0.97013831,0.97013129"
       orientation="0,78.000005"
       id="guide1382"
       inkscape:locked="false" />
    <sodipodi:guide
       position="21.607639,0.97013129"
       orientation="-78.000048,0"
       id="guide1384"
       inkscape:locked="false" />
    <sodipodi:guide
       position="21.607639,21.607643"
       orientation="0,-78.000005"
       id="guide1386"
       inkscape:locked="false" />
  </sodipodi:namedview>
  <metadata
     id="metadata828">
    <rdf:RDF>
      <cc:Work
         rdf:about="">
        <dc:format>image/svg+xml</dc:format>
        <dc:type
           rdf:resource="http://purl.org/dc/dcmitype/StillImage" />
      </cc:Work>
    </rdf:RDF>
  </metadata>
  <g
     inkscape:label="Icon"
     inkscape:groupmode="layer"
     id="layer1"
     transform="translate(0,-274.42223)">
    <g
       id="g2701"
       transform="matrix(1.2580246,0,0,1.2580246,0.08162037,-71.054955)"
       style="stroke-width:0.794897">
      <g
         id="g437509"
         style="display:inline;stroke-width:0.794897"
         transform="translate(30.944747,-96.578167)">
        <path
           style="color:#000000;fill:#612d82;stroke-width:0.794897;stroke-linecap:round;stroke-linejoin:round;stroke-miterlimit:1.5;-inkscape-stroke:none"
           d="m -21.349609,378.36719 a 0.26460996,0.26460996 0 0 0 -0.158203,0.24218 v 3.96875 c 2e-6,0.58137 0.477226,1.0586 1.058593,1.0586 h 0.529297 a 0.26460996,0.26460996 0 0 0 0.263672,-0.23828 l 0.322266,-3.28125 a 0.26460996,0.26460996 0 0 0 -0.08789,-0.22266 l -1.642578,-1.48047 a 0.26460996,0.26460996 0 0 0 -0.285156,-0.0469 z"
           id="path327142" />
        <path
           style="color:#000000;fill:#b557a1;stroke-width:0.794897;stroke-linecap:round;stroke-linejoin:round;stroke-miterlimit:1.5;-inkscape-stroke:none"
           d="m -15.013672,377.02344 -7.429687,0.40429 a 0.26460996,0.26460996 0 0 0 -0.117188,0.49414 c 0,0 2.376953,1.40224 2.376953,3.59766 v 2.91016 c 0,0.87362 0.714272,1.58789 1.587891,1.58789 h 0.263672 c 0.873619,0 1.58789,-0.71427 1.58789,-1.58789 v -2.38086 c 0,-2.51128 1.935547,-4.58008 1.935547,-4.58008 a 0.26460996,0.26460996 0 0 0 -0.205078,-0.44531 z"
           id="path327148" />
        <path
           id="path434921"
           style="color:#000000;fill:#a13f8e;fill-opacity:1;stroke-width:0.794897;stroke-linecap:round;stroke-linejoin:round;stroke-miterlimit:1.5;-inkscape-stroke:none"
           d="m -15.013554,377.02353 -0.412378,0.0222 a 0.26460996,0.26460996 0 0 1 0.08837,0.42323 c 0,0 -1.9358,2.0688 -1.9358,4.58008 v 2.38073 c 0,0.82888 -0.643198,1.51379 -1.455208,1.58182 0.04389,0.004 0.088,0.006 0.132808,0.006 h 0.26355 c 0.873619,0 1.588017,-0.71439 1.588017,-1.58801 v -2.38074 c 0,-2.51128 1.935799,-4.58008 1.935799,-4.58008 a 0.26460996,0.26460996 0 0 0 -0.205155,-0.44545 z" />
        <path
           id="path412630"
           style="fill:#a13f8e;fill-opacity:1;stroke-width:3.00434;stroke-linecap:round;stroke-linejoin:round;stroke-miterlimit:1.5"
           d="m -56.744141,366.45117 -28.082031,1.52735 a 1.0001006,1.0001006 0 0 0 -0.441406,1.86718 c 0,0 1.484746,0.87811 3.248047,2.47657 l 16.527343,1.29687 c 2.169982,0.1702 4.261965,-0.16328 6.166016,-0.89648 1.722922,-2.84258 3.357422,-4.58789 3.357422,-4.58789 a 1.0001006,1.0001006 0 0 0 -0.775391,-1.6836 z"
           transform="matrix(0.26458334,0,0,0.26458334,0,280.06666)" />
        <path
           style="color:#000000;fill:#dd94c1;stroke-width:0.794897;stroke-linecap:round;stroke-linejoin:round;stroke-miterlimit:1.5;-inkscape-stroke:none"
           d="m -17.285156,371.98047 -10.328125,0.80859 a 0.26461046,0.26461046 0 0 0 -0.244141,0.26367 v 4.23438 a 0.26461046,0.26461046 0 0 0 0.244141,0.26367 l 10.328125,0.81055 c 1.856435,0.14561 3.451165,-1.32927 3.451172,-3.19141 -4e-6,-1.86214 -1.594732,-3.33505 -3.451172,-3.18945 z"
           id="path327154" />
        <path
           style="color:#000000;fill:#d0e2ee;stroke-width:0.794897;stroke-linecap:round;stroke-linejoin:round;stroke-miterlimit:1.5;-inkscape-stroke:none"
           d="m -29.427734,372.78906 c -0.298353,0 -0.546875,0.24852 -0.546875,0.54688 v 3.66797 c 0,0.29835 0.248522,0.54687 0.546875,0.54687 h 1.835937 l 0.263672,0.0224 v -4.80642 l -0.263672,0.0223 z"
           id="path327160"
           sodipodi:nodetypes="ssssccccs" />
        <path
           style="color:#000000;fill:#d0e2ee;fill-opacity:1;stroke-width:0.794897;stroke-linecap:round;stroke-linejoin:round;stroke-miterlimit:1.5;-inkscape-stroke:none"
           d="m -17.009766,373.58203 c 0.879885,0 1.587891,0.70801 1.587891,1.58789 0,0.87989 -0.708006,1.58789 -1.587891,1.58789 -0.879885,0 -1.585937,-0.708 -1.585937,-1.58789 0,-0.87988 0.706052,-1.58789 1.585937,-1.58789 z"
           id="path328252" />
        <path
           id="path428252"
           style="color:#000000;fill:#90b6da;fill-opacity:1;stroke-width:0.794897;stroke-linecap:round;stroke-linejoin:round;stroke-miterlimit:1.5;-inkscape-stroke:none"
           d="m -17.009815,373.58188 c -0.575674,0 -1.07664,0.30315 -1.354439,0.75913 0.239975,-0.14592 0.522394,-0.22996 0.825273,-0.22996 0.879885,0 1.588016,0.70814 1.588016,1.58802 0,0.3037 -0.08434,0.58715 -0.230993,0.82785 0.456661,-0.27822 0.76016,-0.78083 0.76016,-1.35702 0,-0.87988 -0.708132,-1.58802 -1.588017,-1.58802 z" />
        <path
           style="color:#000000;fill:#5b6571;stroke-width:0.794897;stroke-linecap:round;stroke-linejoin:round;stroke-miterlimit:1.5;-inkscape-stroke:none"
           d="m -25.550781,380.96484 c -0.393283,0 -0.71875,0.32547 -0.71875,0.71875 v 0.67969 c 0,0.39328 0.325467,0.71875 0.71875,0.71875 h 0.416015 c 0.393284,0 0.716797,-0.32547 0.716797,-0.71875 v -0.67969 c 0,-0.39328 -0.323513,-0.71875 -0.716797,-0.71875 z"
           id="path327212" />
        <path
           style="color:#000000;fill:#d0e2ee;stroke-width:0.794897;stroke-linecap:round;stroke-linejoin:round;stroke-miterlimit:1.5;-inkscape-stroke:none"
           d="m -28.288375,380.05568 c -0.220665,-0.0316 -0.425917,0.0627 -0.560158,0.20369 -0.134242,0.14097 -0.212788,0.32945 -0.212787,0.53288 v 2.46433 c -1e-6,0.20342 0.07854,0.39189 0.212787,0.53287 0.134242,0.14098 0.339478,0.23525 0.560158,0.2037 l 1.725939,-0.24734 c 0.179156,-0.0256 0.349254,-0.0969 0.481954,-0.22188 0.132699,-0.12503 0.221881,-0.31127 0.221881,-0.5147 v -1.97146 c 0,-0.20343 -0.08918,-0.38785 -0.221881,-0.51287 -0.132698,-0.12502 -0.302821,-0.19808 -0.481954,-0.2237 z"
           id="path327218" />
        <path
           id="path398739"
           style="color:#000000;fill:#aabfd0;fill-opacity:1;stroke-width:0.794897;stroke-linecap:round;stroke-linejoin:round;stroke-miterlimit:1.5;-inkscape-stroke:none"
           d="m -28.437542,379.90346 c -0.202917,-10e-4 -0.387519,0.0928 -0.513665,0.22531 -0.08814,0.0926 -0.1539,0.20441 -0.191717,0.32711 0.08329,-0.0224 0.172363,-0.0297 0.264065,-0.0165 l 1.853634,0.26355 c 0.192373,0.0275 0.375293,0.10603 0.517797,0.24029 0.142513,0.13426 0.238229,0.33241 0.238229,0.55087 v 2.11719 c 0,0.0744 -0.01175,0.14668 -0.03204,0.21497 0.119097,-0.0408 0.229741,-0.10335 0.322977,-0.1912 0.14251,-0.13427 0.238228,-0.33448 0.238228,-0.55294 v -2.11718 c 0,-0.21846 -0.09571,-0.41662 -0.238228,-0.55088 -0.142504,-0.13425 -0.325424,-0.21278 -0.517797,-0.24029 l -1.853634,-0.26355 c -0.02962,-0.004 -0.05886,-0.007 -0.08785,-0.007 z" />
        <path
           id="path431830"
           style="color:#000000;fill:#aabfd0;fill-opacity:1;stroke-width:0.794897;stroke-linecap:round;stroke-linejoin:round;stroke-miterlimit:1.5;-inkscape-stroke:none"
           d="m -27.857198,374.99217 v 2.55846 h 0.265618 l 0.263549,0.0227 -1.8e-5,-4.80638 -0.263548,0.0222 h -1.836066 c -0.292653,0 -0.536977,0.23896 -0.546219,0.52968 h 0.443346 a 1.6733375,1.6733375 45 0 1 1.673338,1.67334 z"
           sodipodi:nodetypes="ccccccscc" />
      </g>
      <path
         id="rect43632"
         style="color:#000000;display:inline;fill:#000000;stroke-width:0.794897;stroke-linecap:round;stroke-linejoin:round;stroke-miterlimit:1.5;-inkscape-stroke:none"
         d="m 13.918913,275.39244 c -0.08573,-1.6e-4 -0.172396,0.003 -0.259416,0.01 L 3.3314462,276.211 H 1.5170844 c -0.2983521,0 -0.54673499,0.24837 -0.54673499,0.54673 v 3.668 c 0,0.29835 0.24838289,0.54673 0.54673499,0.54673 h 1.8143618 l 5.0994291,0.4005 c 0.132691,0.0836 0.554052,0.36285 1.00614,0.80873 v 3.81837 c 2e-6,0.58138 0.476967,1.05834 1.0583337,1.05834 h 0.265617 v 0.79323 c 0,0.81652 0.624204,1.49366 1.419034,1.57872 -0.194657,0.95349 -1.063834,1.63626 -2.06344,1.57148 -0.0059,-1.9e-4 -0.01171,-1.9e-4 -0.01757,0 H 9.9661823 c -1.172136,0 -2.115115,-0.94505 -2.115116,-2.11719 v -2.64428 c -3e-6,-0.58137 -0.477484,-1.05885 -1.058851,-1.05885 h -0.265616 v -0.076 c 0,-0.39327 -0.323469,-0.71881 -0.716753,-0.71881 h -0.415995 c -0.06537,0 -0.128693,0.009 -0.189136,0.0258 v -0.0258 c 0,-0.21846 -0.09572,-0.41662 -0.238228,-0.55088 -0.142506,-0.13425 -0.325424,-0.21278 -0.517797,-0.24029 l -1.8536341,-0.26355 c -0.2369741,-0.0339 -0.4573482,0.0671 -0.6015144,0.21859 -0.1441635,0.15139 -0.2284095,0.35412 -0.2284095,0.57258 H 0.97034941 c -0.145415,5.3e-4 -0.2635673,0.11814 -0.2640674,0.26355 -5.291e-4,0.14618 0.1178878,0.26511 0.2640674,0.26561 H 1.7651313 v 1.58802 H 0.97034941 c -0.145415,5.3e-4 -0.2635673,0.11814 -0.2640674,0.26355 -5.291e-4,0.14618 0.1178878,0.26512 0.2640674,0.26562 H 1.7651313 c 0,0.21846 0.084246,0.42065 0.2284095,0.57205 0.1441662,0.15141 0.3645244,0.253 0.6015144,0.21911 l 1.8536341,-0.26561 c 0.192397,-0.0275 0.375289,-0.10396 0.517797,-0.23823 0.142508,-0.13427 0.238228,-0.33448 0.238228,-0.55294 v -0.0258 c 0.06044,0.0168 0.123762,0.0258 0.189136,0.0258 h 0.415995 c 0.393284,0 0.716752,-0.32554 0.716753,-0.71882 v -0.0744 h 0.265616 c 0.295385,0 0.529683,0.23429 0.529684,0.52968 v 2.64428 c 2e-6,1.45812 1.186165,2.64635 2.644283,2.64635 h 0.1152377 c 1.295563,0.084 2.429506,-0.83895 2.634465,-2.09496 0.82593,-0.0536 1.484664,-0.74547 1.484664,-1.5844 v -2.38073 c 0,-2.5119 1.935799,-4.58008 1.935799,-4.58008 0.662257,-0.66226 0.974621,-1.49283 0.974621,-2.29914 0,-1.96321 -1.58161,-3.2664 -3.192055,-3.19924 z m -0.07286,0.52969 c 1.492986,-0.0378 2.735229,1.15687 2.735233,2.6696 -6e-6,1.56153 -1.323695,2.78603 -2.880444,2.66392 L 3.6166988,280.465 v -3.74447 l 10.0841392,-0.79065 c 0.04865,-0.004 0.09705,-0.007 0.145211,-0.008 z m -1.967839,0.34726 c -0.07042,1e-5 -0.137933,0.0281 -0.187585,0.078 -0.574265,0.57426 -0.929661,1.36913 -0.929659,2.24431 10e-7,0.87519 0.355396,1.6716 0.929659,2.24586 0.103202,0.10261 0.269901,0.10261 0.373103,0 0.103644,-0.10338 0.103644,-0.27127 0,-0.37465 -0.479101,-0.4791 -0.773077,-1.13901 -0.773079,-1.87121 -2e-6,-0.73219 0.293979,-1.3921 0.773079,-1.8712 0.102613,-0.1032 0.102613,-0.2699 0,-0.37311 -0.04915,-0.0494 -0.115814,-0.0775 -0.185518,-0.078 z m 2.056722,0.20516 c -1.165867,0 -2.115116,0.95131 -2.115116,2.11718 0,1.16587 0.949249,2.11719 2.115116,2.11719 1.165868,0 2.117184,-0.95132 2.117184,-2.11719 0,-1.16587 -0.951316,-2.11718 -2.117184,-2.11718 z m -12.4178516,0.26562 h 1.5704477 v 3.70313 H 1.5170844 c -0.014367,0 -0.017568,-0.003 -0.017568,-0.0176 v -0.5116 h 0.7947819 c 0.145415,-5.3e-4 0.2630488,-0.11814 0.2635515,-0.26354 5.291e-4,-0.14619 -0.1173719,-0.26512 -0.2635515,-0.26562 H 1.4995161 v -0.52762 h 0.5291667 c 0.1469416,5.3e-4 0.2661973,-0.11868 0.2656152,-0.26562 -5.292e-4,-0.14618 -0.1194409,-0.26412 -0.2656152,-0.26355 H 1.4995161 v -0.52916 H 2.294298 c 0.146177,-5.3e-4 0.2641256,-0.11945 0.2635515,-0.26562 -5.292e-4,-0.14541 -0.1181365,-0.26356 -0.2635515,-0.26406 H 1.4995161 v -0.5116 c 0,-0.0144 0.0032,-0.0176 0.017568,-0.0176 z m 12.4178476,0.26354 c 0.472382,0 0.895116,0.20451 1.185457,0.52969 h -2.369881 c 0.289824,-0.32527 0.711963,-0.52969 1.184424,-0.52969 z m -1.496549,1.05885 h 2.994649 c 0.05804,0.16537 0.08992,0.34345 0.08992,0.52917 0,0.18572 -0.03187,0.36381 -0.08992,0.52917 h -2.994649 c -0.05789,-0.16534 -0.0894,-0.34348 -0.0894,-0.52917 0,-0.18569 0.03151,-0.36383 0.0894,-0.52917 z m -7.7773037,0.23203 c -0.134277,0.007 -0.241656,0.11432 -0.249596,0.24857 -0.0094,0.14622 0.101785,0.27226 0.248046,0.28112 l 1.04283,0.0646 c 0.146422,0.01 0.272788,-0.10157 0.281637,-0.24805 0.0085,-0.14563 -0.102429,-0.2707 -0.248047,-0.27957 l -1.044897,-0.0661 c -0.01,-7.9e-4 -0.01998,-7.9e-4 -0.02997,-5.3e-4 z m 8.7446867,0.0336 c -0.145319,5.3e-4 -0.262983,0.11823 -0.26355,0.26355 -5.82e-4,0.14613 0.117423,0.26505 0.26355,0.26562 h 1.058333 c 0.146934,5.3e-4 0.266192,-0.11869 0.265617,-0.26562 -5.82e-4,-0.14612 -0.119492,-0.26412 -0.265617,-0.26355 z m -8.7147137,1.05834 c -0.145638,-0.009 -0.2707,0.10243 -0.279569,0.24804 -0.0085,0.14564 0.102429,0.2707 0.248046,0.27957 l 3.318661,0.20671 c 0.145469,0.009 0.271176,-0.10055 0.28112,-0.24598 0.0094,-0.14623 -0.101786,-0.27227 -0.248047,-0.28112 z m 8.0599727,0.26406 h 2.369364 c -0.290333,0.325 -0.713217,0.52917 -1.185457,0.52917 -0.472197,0 -0.894097,-0.20422 -1.183907,-0.52917 z m -3.3145267,1.80093 4.2229987,0.33176 c 0.437818,0.0343 0.860899,-0.0217 1.25212,-0.15141 -0.577684,0.89814 -1.240235,2.2706 -1.240235,3.83904 v 2.38073 c 0,0.58764 -0.471213,1.05833 -1.05885,1.05833 h -0.26355 c -0.587637,0 -1.058333,-0.47069 -1.058333,-1.05833 v -2.91042 c 0,-1.3016 -0.679461,-2.32559 -1.3492717,-3.01945 -0.0262,-0.0567 -0.0716,-0.10224 -0.128157,-0.12867 -0.129477,-0.12668 -0.256365,-0.24058 -0.376722,-0.34158 z m 2.1135667,0.58084 c -0.05548,5.3e-4 -0.109352,0.0187 -0.153996,0.0517 -0.117229,0.0878 -0.140855,0.25409 -0.05271,0.37104 0,0 0.740007,0.98685 0.740007,2.48615 -5.82e-4,0.14694 0.118682,0.2662 0.265616,0.26562 0.146127,-5.3e-4 0.264123,-0.11949 0.26355,-0.26562 0,-1.67569 -0.845426,-2.80448 -0.845426,-2.80448 -0.04269,-0.0559 -0.105924,-0.0926 -0.1757,-0.1018 -0.01369,-0.002 -0.02751,-0.003 -0.04134,-0.003 z m -1.5838827,0.74879 c 0.4375887,0.57725 0.7947837,1.30883 0.7947837,2.16007 v 1.58802 h -0.265617 c -0.295385,0 -0.5291647,-0.23377 -0.5291667,-0.52917 z m -7.46466,1.0728 c 0.00638,1.4e-4 0.012991,5.3e-4 0.019632,0.002 l 1.8515648,0.26562 c 0.09783,0.014 0.1809562,0.053 0.2304772,0.0997 0.04952,0.0466 0.07183,0.0912 0.07183,0.16588 v 2.11719 c 0,0.0747 -0.02231,0.11922 -0.07183,0.16588 -0.04952,0.0466 -0.132666,0.0878 -0.2304772,0.1018 l -1.8515648,0.26355 c -0.053221,0.008 -0.096835,-0.008 -0.1446953,-0.0584 -0.047861,-0.0503 -0.082166,-0.13255 -0.082166,-0.20722 v -2.64636 c 0,-0.0747 0.034306,-0.15696 0.082166,-0.20722 0.041878,-0.044 0.080428,-0.063 0.1250579,-0.062 z m 2.892329,1.06195 h 0.415995 c 0.109278,0 0.187586,0.0804 0.187586,0.18965 v 0.67955 c 0,0.10928 -0.07831,0.18965 -0.187586,0.18965 h -0.415995 c -0.109278,0 -0.189136,-0.0804 -0.189136,-0.18965 v -0.68988 c 0.0048,-0.10404 0.08328,-0.17932 0.189136,-0.17932 z"
         sodipodi:nodetypes="cccsssscccsscscccsssscssscsscccccccccccccsccsscssscssssccssccccscccccccscccscscssssscccsscccccccccccccccsscsccsccsccscsccccccsscsccscccccccccccsccccsssssscccccccsccccccscsscccccccccccsscccssssssscs" />
    </g>
  </g>
</svg>
