<?xml version="1.0" encoding="UTF-8" standalone="no"?> <svg xmlns="http://www.w3.org/2000/svg" width="421.251" height="512" viewBox="0 0 421.251 512">
  <g id="Layer_x0020_1" transform="translate(-139.375 -94)">
    <path id="Path_220" data-name="Path 220" d="M389.472,551.352H308.779V535.483a6,6,0,0,0-12,0v15.869H198.715c-18.426,0-30.5,6.752-36.017,15.39a21.6,21.6,0,0,0,0,23.868c5.517,8.637,17.592,15.39,36.017,15.39h299.07c10.513,0,20.168-2.75,27.25-7.178,7.93-4.958,12.853-12.074,12.853-20.146s-4.923-15.188-12.853-20.146c-7.083-4.428-16.737-7.178-27.25-7.178H401.472V535.483a6,6,0,0,0-12,0v15.869Z" fill="#86a9bf"/>
    <path id="Path_221" data-name="Path 221" d="M189.1,94H510.9a49.851,49.851,0,0,1,49.723,49.722V491.758A49.853,49.853,0,0,1,510.9,541.483H189.1a49.853,49.853,0,0,1-49.723-49.724V143.721A49.851,49.851,0,0,1,189.1,94Z" fill="#7b98b1"/>
    <path id="Path_222" data-name="Path 222" d="M189.1,131.45H510.9a6,6,0,0,1,6,6V426.022a6,6,0,0,1-6,6H189.1a6,6,0,0,1-6-6V137.45a6,6,0,0,1,6-6Z" fill="#b3cce2"/>
    <path id="Path_223" data-name="Path 223" d="M183.1,375.377v-12h51.248a6,6,0,1,1,0,12H183.1Z" fill="#f97718"/>
    <path id="Path_224" data-name="Path 224" d="M183.1,287.737v-12h48.928a6,6,0,1,1,0,12H183.1Z" fill="#f97718"/>
    <path id="Path_225" data-name="Path 225" d="M183.1,200.1v-12h46.61a6,6,0,1,1,0,12H183.1Z" fill="#f97718"/>
    <path id="Path_226" data-name="Path 226" d="M516.9,188.1v12H465.653a6,6,0,0,1,0-12H516.9Z" fill="#f97718"/>
    <path id="Path_227" data-name="Path 227" d="M516.9,275.737v12H467.971a6,6,0,0,1,0-12Z" fill="#f97718"/>
    <path id="Path_228" data-name="Path 228" d="M516.9,363.377v12H470.291a6,6,0,0,1,0-12Z" fill="#f97718"/>
    <path id="Path_229" data-name="Path 229" d="M560.625,446.21v45.548A49.853,49.853,0,0,1,510.9,541.483H189.1a49.853,49.853,0,0,1-49.723-49.724V446.21h421.25Z" fill="#b3cce2"/>
    <path id="Path_230" data-name="Path 230" d="M305.581,479.882c4.015,4.016,6.172,10.963,5.961,16.557a23.425,23.425,0,0,1-7.517,16.317l-.012-.013-.23.221h0l-.073.076-.008.008-.187.2a23.506,23.506,0,1,1-14.542-41.2c6.912.262,11.755,2.989,16.527,7.761l.081.079Z" fill="#00b6bd"/>
    <path id="Path_231" data-name="Path 231" d="M305.581,479.882a18.1,18.1,0,0,1,3.24,4.561l-.073.07-16.611,15.4a5.987,5.987,0,0,1-8.157-8.766l16.611-15.4.028-.025a32.165,32.165,0,0,1,4.879,4.08Z" fill="#ffaf46"/>
    <path id="Path_232" data-name="Path 232" d="M244.616,173.186H450.745a20.828,20.828,0,0,1,14.748,6.136l-4.219,4.243,4.241-4.244q.186.186.351.383a20.822,20.822,0,0,1,5.786,14.392h0A20.949,20.949,0,0,1,450.745,215H244.616c-26.7,0-28.167-41.817,0-41.817Z" fill="#f7931e"/>
    <path id="Path_233" data-name="Path 233" d="M246.936,260.828H453.063a20.971,20.971,0,0,1,20.908,20.908h0a20.971,20.971,0,0,1-20.908,20.908H246.936c-27.665,0-27.665-41.817,0-41.817Z" fill="#f7931e"/>
    <path id="Path_234" data-name="Path 234" d="M249.254,348.468H455.383a20.859,20.859,0,0,1,14.759,6.149l.012-.012h0l0,0a20.851,20.851,0,0,1,6.133,14.768h0a20.852,20.852,0,0,1-6.136,14.771q-.186.186-.383.351a20.815,20.815,0,0,1-14.389,5.785H249.254a20.949,20.949,0,0,1-20.908-20.907h0a20.833,20.833,0,0,1,6.136-14.75l4.243,4.219-4.244-4.241q.186-.186.383-.351a20.817,20.817,0,0,1,14.391-5.786Z" fill="#f7931e"/>
    <path id="Path_235" data-name="Path 235" d="M536.443,467.354a5.977,5.977,0,1,0-11.953.187c0,.115,1.126,40.784-35.672,41.9a5.979,5.979,0,1,0,.328,11.953c48.762-1.476,47.3-53.888,47.3-54.037Z" fill="#7b98b1"/>
    <path id="Path_236" data-name="Path 236" d="M173.456,467.541a5.977,5.977,0,1,0-11.953-.187c0,.149-1.467,52.56,47.3,54.037a5.979,5.979,0,1,0,.328-11.953c-36.8-1.114-35.673-41.783-35.672-41.9Z" fill="#7b98b1"/>
    <path id="Path_237" data-name="Path 237" d="M421.943,511.264c4.041-4.039,6.211-11.03,6-16.658a23.569,23.569,0,0,0-7.564-16.418l-.012.013-.232-.222v0l-.073-.076-.009-.008-.187-.2a23.652,23.652,0,1,0-14.633,41.459c6.954-.263,11.829-3.008,16.63-7.808l.081-.081Z" fill="#00b6bd"/>
    <path id="Path_238" data-name="Path 238" d="M421.943,511.264a18.254,18.254,0,0,0,3.24-4.551l-.182-.177-16.611-15.4a5.987,5.987,0,1,0-8.157,8.766l16.611,15.4.141.126a32.372,32.372,0,0,0,4.876-4.083l.083-.081Z" fill="#ffaf46"/>
  </g>
</svg>
