<?xml version="1.0" encoding="iso-8859-1"?>
<!-- Uploaded to: SVG Repo, www.svgrepo.com, Generator: SVG Repo Mixer Tools -->
<svg height="800px" width="800px" version="1.1" id="Layer_1" xmlns="http://www.w3.org/2000/svg" xmlns:xlink="http://www.w3.org/1999/xlink" 
	 viewBox="0 0 503.607 503.607" xml:space="preserve">
<g transform="translate(1 1)">
	<polygon style="fill:#FD9808;" points="351.525,150.082 494.213,150.082 494.213,7.393 351.525,7.393 	"/>
	<g>
		<polygon style="fill:#FFDD09;" points="351.525,150.082 469.033,150.082 469.033,7.393 351.525,7.393 		"/>
		<polygon style="fill:#FFDD09;" points="368.311,494.213 469.033,494.213 469.033,460.639 368.311,460.639 		"/>
		<polygon style="fill:#FFDD09;" points="393.492,460.639 443.852,460.639 443.852,427.066 393.492,427.066 		"/>
	</g>
	<g>
		<path style="fill:#DB4D6C;" d="M66.148,494.213H49.361c-9.233,0-16.787-7.554-16.787-16.787v-50.361h50.361v50.361
			C82.934,486.659,75.38,494.213,66.148,494.213"/>
		<path style="fill:#DB4D6C;" d="M317.951,494.213h-16.787c-9.233,0-16.787-7.554-16.787-16.787v-50.361h50.361v50.361
			C334.738,486.659,327.184,494.213,317.951,494.213"/>
	</g>
	<path style="fill:#FD9808;" d="M343.131,301.164h-4.197c-7.554,0-14.269-5.036-15.948-11.751l-29.377-102.4
		c-5.875-12.59-17.626-20.144-31.056-20.144H104.757c-13.43,0-25.18,7.554-31.056,20.144l-29.377,102.4
		c-1.679,7.554-8.393,11.751-15.948,11.751H24.18c-9.233,0-16.787,7.554-16.787,16.787v92.328c0,9.233,7.554,16.787,16.787,16.787
		h318.951c9.233,0,16.787-7.554,16.787-16.787v-92.328C359.918,308.718,352.364,301.164,343.131,301.164"/>
	<path style="fill:#FFDD09;" d="M319.629,301.164h-4.197c-6.715,0-12.59-5.036-14.269-11.751l-26.859-102.4
		c-5.036-12.59-15.948-20.144-27.698-20.144H103.918c-11.751,0-22.662,7.554-27.698,20.144l-26.859,102.4
		c-1.679,6.715-7.554,11.751-14.269,11.751h-4.197c-8.393,0-15.108,7.554-15.108,16.787v92.328c0,9.233,6.715,16.787,15.108,16.787
		h288.734c8.393,0,15.108-7.554,15.108-16.787v-92.328C334.738,308.718,328.023,301.164,319.629,301.164"/>
	<path style="fill:#FFFFFF;" d="M24.18,301.164h4.197c7.554,0,14.269-5.036,15.948-11.751l30.216-102.4
		c5.036-12.59,16.787-20.144,30.216-20.144h15.948c-11.751,0-22.662,7.554-27.698,20.144l-26.859,102.4
		c-1.679,6.715-7.554,11.751-14.269,11.751h-4.197c-8.393,0-15.108,7.554-15.108,16.787v92.328c0,9.233,6.715,16.787,15.108,16.787
		H24.18c-9.233,0-16.787-7.554-16.787-16.787v-92.328C7.393,308.718,14.948,301.164,24.18,301.164"/>
	<g>
		<path style="fill:#DB4D6C;" d="M99.721,359.918c0,14.269-10.911,25.18-25.18,25.18s-25.18-10.911-25.18-25.18
			s10.911-25.18,25.18-25.18S99.721,345.649,99.721,359.918"/>
		<path style="fill:#DB4D6C;" d="M317.951,359.918c0,14.269-10.911,25.18-25.18,25.18s-25.18-10.911-25.18-25.18
			s10.911-25.18,25.18-25.18S317.951,345.649,317.951,359.918"/>
	</g>
	<path d="M343.131,435.459H24.18C9.911,435.459-1,424.548-1,410.279v-92.328c0-14.269,10.911-25.18,25.18-25.18h4.197
		c3.357,0,6.715-2.518,8.393-5.875l29.377-102.4v-0.839c6.715-15.108,21.823-25.18,38.61-25.18h157.797
		c16.787,0,31.895,10.072,38.61,25.18v0.839l29.377,102.4c0.839,3.357,4.197,5.875,8.393,5.875h4.197
		c14.269,0,25.18,10.911,25.18,25.18v92.328C368.311,424.548,357.4,435.459,343.131,435.459z M24.18,309.557
		c-5.036,0-8.393,3.357-8.393,8.393v92.328c0,5.036,3.357,8.393,8.393,8.393h318.951c5.036,0,8.393-3.357,8.393-8.393v-92.328
		c0-5.036-3.357-8.393-8.393-8.393h-4.197c-10.911,0-20.984-7.554-24.341-18.466l-29.377-101.561
		c-4.197-9.233-13.43-14.269-22.662-14.269H104.757c-10.072,0-18.466,5.875-22.662,14.269L52.718,291.092
		c-3.357,10.911-13.43,18.466-24.341,18.466H24.18z"/>
	<path d="M66.148,502.607H49.361c-14.269,0-25.18-10.911-25.18-25.18v-50.361c0-5.036,3.357-8.393,8.393-8.393h50.361
		c5.036,0,8.393,3.357,8.393,8.393v50.361C91.328,491.695,80.416,502.607,66.148,502.607z M40.967,435.459v41.967
		c0,5.036,3.357,8.393,8.393,8.393h16.787c5.036,0,8.393-3.357,8.393-8.393v-41.967H40.967z"/>
	<path d="M317.951,502.607h-16.787c-14.269,0-25.18-10.911-25.18-25.18v-50.361c0-5.036,3.357-8.393,8.393-8.393h50.361
		c5.036,0,8.393,3.357,8.393,8.393v50.361C343.131,491.695,332.22,502.607,317.951,502.607z M292.77,435.459v41.967
		c0,5.036,3.357,8.393,8.393,8.393h16.787c5.036,0,8.393-3.357,8.393-8.393v-41.967H292.77z"/>
	<path d="M74.541,393.492c-18.466,0-33.574-15.108-33.574-33.574c0-18.466,15.108-33.574,33.574-33.574s33.574,15.108,33.574,33.574
		C108.115,378.384,93.007,393.492,74.541,393.492z M74.541,343.131c-9.233,0-16.787,7.554-16.787,16.787
		c0,9.233,7.554,16.787,16.787,16.787s16.787-7.554,16.787-16.787C91.328,350.685,83.774,343.131,74.541,343.131z"/>
	<path d="M292.77,393.492c-18.466,0-33.574-15.108-33.574-33.574c0-18.466,15.108-33.574,33.574-33.574s33.574,15.108,33.574,33.574
		C326.344,378.384,311.236,393.492,292.77,393.492z M292.77,343.131c-9.233,0-16.787,7.554-16.787,16.787
		c0,9.233,7.554,16.787,16.787,16.787c9.233,0,16.787-7.554,16.787-16.787C309.557,350.685,302.003,343.131,292.77,343.131z"/>
	<path d="M200.443,385.098h-33.574c-5.036,0-8.393-3.357-8.393-8.393s3.357-8.393,8.393-8.393h33.574
		c5.036,0,8.393,3.357,8.393,8.393S205.479,385.098,200.443,385.098z"/>
	<path d="M217.229,351.525h-67.148c-5.036,0-8.393-3.357-8.393-8.393c0-5.036,3.357-8.393,8.393-8.393h67.148
		c5.036,0,8.393,3.357,8.393,8.393C225.623,348.167,222.266,351.525,217.229,351.525z"/>
	<path id="SVGCleanerId_0" d="M265.072,292.77H103.079c-5.036,0-10.072-2.518-13.43-6.715c-3.357-4.197-4.197-10.072-2.518-15.108
		l20.144-67.148c2.518-7.554,8.393-11.751,15.948-11.751h121.705c7.554,0,14.269,5.036,15.948,11.751l20.144,67.148
		c1.679,5.036,0.839,10.911-2.518,15.108S270.108,292.77,265.072,292.77z M123.223,208.836l-20.144,67.148h161.993l-20.144-67.148
		H123.223z"/>
	<path d="M469.033,502.607H368.311c-5.036,0-8.393-3.357-8.393-8.393v-33.574c0-5.036,3.357-8.393,8.393-8.393h100.721
		c5.036,0,8.393,3.357,8.393,8.393v33.574C477.426,499.249,474.069,502.607,469.033,502.607z M376.705,485.82h83.934v-16.787
		h-83.934V485.82z"/>
	<path d="M443.852,469.033h-50.361c-5.036,0-8.393-3.357-8.393-8.393v-33.574c0-5.036,3.357-8.393,8.393-8.393h50.361
		c5.036,0,8.393,3.357,8.393,8.393v33.574C452.246,465.675,448.888,469.033,443.852,469.033z M401.885,452.246h33.574v-16.787
		h-33.574V452.246z"/>
	<path d="M418.672,435.459c-5.036,0-8.393-3.357-8.393-8.393V150.082c0-5.036,3.357-8.393,8.393-8.393
		c5.036,0,8.393,3.357,8.393,8.393v276.984C427.066,432.102,423.708,435.459,418.672,435.459z"/>
	<path d="M494.213,158.475H351.525c-5.036,0-8.393-3.357-8.393-8.393V7.393c0-5.036,3.357-8.393,8.393-8.393h142.689
		c5.036,0,8.393,3.357,8.393,8.393v142.689C502.607,155.118,499.249,158.475,494.213,158.475z M359.918,141.689H485.82V15.787
		H359.918V141.689z"/>
	<path d="M410.279,124.902c-5.036,0-8.393-3.357-8.393-8.393V40.967c0-5.036,3.357-8.393,8.393-8.393
		c5.036,0,8.393,3.357,8.393,8.393v75.541C418.672,121.544,415.315,124.902,410.279,124.902z"/>
	<path d="M427.066,99.721h-16.787c-5.036,0-8.393-3.357-8.393-8.393V40.967c0-5.036,3.357-8.393,8.393-8.393h16.787
		c18.466,0,33.574,15.108,33.574,33.574S445.531,99.721,427.066,99.721z M418.672,82.934h8.393c9.233,0,16.787-7.554,16.787-16.787
		s-7.554-16.787-16.787-16.787h-8.393V82.934z"/>
	<path style="fill:#DB4D6C;" d="M265.072,284.377H103.079c-5.875,0-9.233-5.036-8.393-10.911l20.144-67.148
		c0.839-3.357,4.197-5.875,8.393-5.875h121.705c3.357,0,6.715,2.518,8.393,5.875l20.144,67.148
		C274.305,279.341,270.108,284.377,265.072,284.377"/>
	<g>
		<path id="SVGCleanerId_0_1_" d="M265.072,292.77H103.079c-5.036,0-10.072-2.518-13.43-6.715
			c-3.357-4.197-4.197-10.072-2.518-15.108l20.144-67.148c2.518-7.554,8.393-11.751,15.948-11.751h121.705
			c7.554,0,14.269,5.036,15.948,11.751l20.144,67.148c1.679,5.036,0.839,10.911-2.518,15.108S270.108,292.77,265.072,292.77z
			 M123.223,208.836l-20.144,67.148h161.993l-20.144-67.148H123.223z"/>
	</g>
</g>
</svg>